<svg width="281" height="42" viewBox="0 0 281 42" fill="none" xmlns="http://www.w3.org/2000/svg">
<rect x="54" y="27" width="95" height="15" fill="#FEBF30"/>
<rect x="141" width="95" height="15" fill="#1AA5DC"/>
<rect x="80" y="6" width="125" height="30" fill="#028E58"/>
<path d="M90.1058 29V11.12H97.6418C98.7618 11.12 99.7298 11.32 100.546 11.72C101.362 12.104 101.986 12.664 102.418 13.4C102.85 14.12 103.066 14.976 103.066 15.968C103.066 16.832 102.842 17.624 102.394 18.344C101.962 19.048 101.282 19.608 100.354 20.024V18.824C101.17 19.144 101.834 19.552 102.346 20.048C102.858 20.528 103.226 21.072 103.45 21.68C103.69 22.288 103.81 22.928 103.81 23.6C103.81 25.28 103.258 26.6 102.154 27.56C101.066 28.52 99.5698 29 97.6658 29H90.1058ZM92.9378 26.48H97.8818C98.8258 26.48 99.5778 26.224 100.138 25.712C100.698 25.184 100.978 24.488 100.978 23.624C100.978 22.744 100.698 22.048 100.138 21.536C99.5778 21.008 98.8258 20.744 97.8818 20.744H92.9378V26.48ZM92.9378 18.248H97.7138C98.4818 18.248 99.0978 18.032 99.5618 17.6C100.026 17.152 100.258 16.568 100.258 15.848C100.258 15.128 100.026 14.568 99.5618 14.168C99.0978 13.768 98.4818 13.568 97.7138 13.568H92.9378V18.248ZM110.347 29.288C109.467 29.288 108.691 29.136 108.019 28.832C107.363 28.512 106.851 28.08 106.483 27.536C106.115 26.976 105.931 26.32 105.931 25.568C105.931 24.864 106.083 24.232 106.387 23.672C106.707 23.112 107.195 22.64 107.851 22.256C108.507 21.872 109.331 21.6 110.323 21.44L114.835 20.696V22.832L110.851 23.528C110.131 23.656 109.603 23.888 109.267 24.224C108.931 24.544 108.763 24.96 108.763 25.472C108.763 25.968 108.947 26.376 109.315 26.696C109.699 27 110.187 27.152 110.779 27.152C111.515 27.152 112.155 26.992 112.699 26.672C113.259 26.352 113.691 25.928 113.995 25.4C114.299 24.856 114.451 24.256 114.451 23.6V20.264C114.451 19.624 114.211 19.104 113.731 18.704C113.267 18.288 112.643 18.08 111.859 18.08C111.139 18.08 110.507 18.272 109.963 18.656C109.435 19.024 109.043 19.504 108.787 20.096L106.531 18.968C106.771 18.328 107.163 17.768 107.707 17.288C108.251 16.792 108.883 16.408 109.603 16.136C110.339 15.864 111.115 15.728 111.931 15.728C112.955 15.728 113.859 15.92 114.643 16.304C115.443 16.688 116.059 17.224 116.491 17.912C116.939 18.584 117.163 19.368 117.163 20.264V29H114.571V26.648L115.123 26.72C114.819 27.248 114.427 27.704 113.947 28.088C113.483 28.472 112.947 28.768 112.339 28.976C111.747 29.184 111.083 29.288 110.347 29.288ZM120.334 29V16.016H122.926V18.56L122.614 18.224C122.934 17.408 123.446 16.792 124.15 16.376C124.854 15.944 125.67 15.728 126.598 15.728C127.558 15.728 128.406 15.936 129.142 16.352C129.878 16.768 130.454 17.344 130.87 18.08C131.286 18.816 131.494 19.664 131.494 20.624V29H128.806V21.344C128.806 20.688 128.686 20.136 128.446 19.688C128.206 19.224 127.862 18.872 127.414 18.632C126.982 18.376 126.486 18.248 125.926 18.248C125.366 18.248 124.862 18.376 124.414 18.632C123.982 18.872 123.646 19.224 123.406 19.688C123.166 20.152 123.046 20.704 123.046 21.344V29H120.334ZM140.397 29.288C139.149 29.288 138.029 28.992 137.037 28.4C136.061 27.792 135.285 26.976 134.709 25.952C134.149 24.928 133.869 23.776 133.869 22.496C133.869 21.216 134.157 20.064 134.733 19.04C135.309 18.016 136.085 17.208 137.061 16.616C138.037 16.024 139.141 15.728 140.373 15.728C141.413 15.728 142.333 15.936 143.133 16.352C143.933 16.768 144.565 17.344 145.029 18.08L144.621 18.704V10.832H147.309V29H144.741V26.36L145.053 26.864C144.605 27.648 143.965 28.248 143.133 28.664C142.301 29.08 141.389 29.288 140.397 29.288ZM140.661 26.768C141.413 26.768 142.085 26.584 142.677 26.216C143.285 25.848 143.757 25.344 144.093 24.704C144.445 24.048 144.621 23.312 144.621 22.496C144.621 21.68 144.445 20.952 144.093 20.312C143.757 19.672 143.285 19.168 142.677 18.8C142.085 18.432 141.413 18.248 140.661 18.248C139.909 18.248 139.229 18.432 138.621 18.8C138.013 19.168 137.541 19.672 137.205 20.312C136.869 20.952 136.701 21.68 136.701 22.496C136.701 23.312 136.869 24.048 137.205 24.704C137.541 25.344 138.005 25.848 138.597 26.216C139.205 26.584 139.893 26.768 140.661 26.768ZM155.107 29.288C154.131 29.288 153.275 29.072 152.539 28.64C151.803 28.192 151.227 27.576 150.811 26.792C150.411 25.992 150.211 25.072 150.211 24.032V16.016H152.923V23.792C152.923 24.384 153.043 24.904 153.283 25.352C153.523 25.8 153.859 26.152 154.291 26.408C154.723 26.648 155.219 26.768 155.779 26.768C156.355 26.768 156.859 26.64 157.291 26.384C157.723 26.128 158.059 25.768 158.299 25.304C158.555 24.84 158.683 24.296 158.683 23.672V16.016H161.371V29H158.803V26.456L159.091 26.792C158.787 27.592 158.283 28.208 157.579 28.64C156.875 29.072 156.051 29.288 155.107 29.288ZM164.537 29V16.016H167.129V18.56L166.817 18.224C167.137 17.408 167.649 16.792 168.353 16.376C169.057 15.944 169.873 15.728 170.801 15.728C171.761 15.728 172.609 15.936 173.345 16.352C174.081 16.768 174.657 17.344 175.073 18.08C175.489 18.816 175.697 19.664 175.697 20.624V29H173.009V21.344C173.009 20.688 172.889 20.136 172.649 19.688C172.409 19.224 172.065 18.872 171.617 18.632C171.185 18.376 170.689 18.248 170.129 18.248C169.569 18.248 169.065 18.376 168.617 18.632C168.185 18.872 167.849 19.224 167.609 19.688C167.369 20.152 167.249 20.704 167.249 21.344V29H164.537ZM184.864 34.28C183.92 34.28 183.048 34.128 182.248 33.824C181.448 33.52 180.76 33.096 180.184 32.552C179.608 32.024 179.176 31.4 178.888 30.68L181.384 29.648C181.608 30.256 182.016 30.76 182.608 31.16C183.216 31.56 183.96 31.76 184.84 31.76C185.528 31.76 186.144 31.624 186.688 31.352C187.232 31.096 187.664 30.712 187.984 30.2C188.304 29.704 188.464 29.104 188.464 28.4V25.472L188.944 26.024C188.496 26.856 187.872 27.488 187.072 27.92C186.288 28.352 185.4 28.568 184.408 28.568C183.208 28.568 182.128 28.288 181.168 27.728C180.208 27.168 179.448 26.4 178.888 25.424C178.344 24.448 178.072 23.352 178.072 22.136C178.072 20.904 178.344 19.808 178.888 18.848C179.448 17.888 180.2 17.128 181.144 16.568C182.088 16.008 183.168 15.728 184.384 15.728C185.376 15.728 186.256 15.944 187.024 16.376C187.808 16.792 188.448 17.4 188.944 18.2L188.584 18.872V16.016H191.152V28.4C191.152 29.52 190.88 30.52 190.336 31.4C189.808 32.296 189.072 33 188.128 33.512C187.184 34.024 186.096 34.28 184.864 34.28ZM184.72 26.048C185.44 26.048 186.08 25.88 186.64 25.544C187.2 25.192 187.64 24.728 187.96 24.152C188.296 23.56 188.464 22.896 188.464 22.16C188.464 21.424 188.296 20.76 187.96 20.168C187.624 19.576 187.176 19.112 186.616 18.776C186.056 18.424 185.424 18.248 184.72 18.248C183.984 18.248 183.328 18.424 182.752 18.776C182.176 19.112 181.72 19.576 181.384 20.168C181.064 20.744 180.904 21.408 180.904 22.16C180.904 22.88 181.064 23.536 181.384 24.128C181.72 24.72 182.176 25.192 182.752 25.544C183.328 25.88 183.984 26.048 184.72 26.048Z" fill="white"/>
<path d="M280 0V42H282V0H280ZM1 42V0H-1V42H1Z" fill="white" mask="url(#path-1-inside-1_23_214)"/>
</svg>
