<svg width="700" height="500" viewBox="0 0 700 500" fill="none" xmlns="http://www.w3.org/2000/svg">
<circle cx="350" cy="250" r="250" fill="#2C8FCE"/>
<rect x="34.031" y="260.145" width="600" height="150" rx="10" transform="rotate(-15 34.031 260.145)" fill="#2C8FCE"/>
<rect x="27.031" y="254.145" width="600" height="150" rx="10" transform="rotate(-15 27.031 254.145)" fill="#1AA5DC"/>
<path d="M286.981 256.983L277.726 222.441L290.94 218.901C293.32 218.263 295.534 218.117 297.581 218.463C299.659 218.801 301.443 219.648 302.933 221.004C304.423 222.361 305.491 224.245 306.137 226.656C306.766 229.005 306.764 231.159 306.129 233.118C305.486 235.046 304.365 236.672 302.765 237.995L314.336 249.653L306.269 251.815L293.651 238.847L299.02 240.34L290.814 242.539L294.168 255.057L286.981 256.983ZM289.136 236.28L295.21 234.652C296.23 234.379 297.057 233.942 297.691 233.341C298.326 232.741 298.748 232.031 298.96 231.213C299.202 230.386 299.199 229.509 298.95 228.581C298.694 227.623 298.254 226.847 297.63 226.252C297.038 225.648 296.317 225.245 295.468 225.042C294.618 224.839 293.683 224.874 292.663 225.148L286.59 226.775L289.136 236.28ZM326.633 246.955C324.593 247.501 322.73 247.537 321.046 247.06C319.384 246.545 317.97 245.599 316.806 244.221C315.642 242.843 314.778 241.104 314.215 239.002L310.103 223.655L317.058 221.792L321.021 236.582C321.277 237.54 321.691 238.34 322.26 238.983C322.853 239.586 323.558 239.993 324.377 240.205C325.195 240.416 326.053 240.402 326.949 240.161C327.876 239.913 328.626 239.497 329.199 238.913C329.802 238.32 330.194 237.619 330.374 236.809C330.577 235.959 330.55 235.055 330.294 234.097L326.33 219.307L333.285 217.443L340.068 242.758L333.577 244.498L332.236 239.49L332.905 240.504C332.723 242.176 332.067 243.561 330.937 244.659C329.829 245.717 328.394 246.483 326.633 246.955ZM357.42 238.407C354.36 239.227 351.76 239.046 349.621 237.863C347.505 236.641 346.049 234.547 345.254 231.579L342.533 221.425L338.268 222.568L336.653 216.541L336.885 216.479C338.183 216.131 339.085 215.542 339.591 214.71C340.128 213.871 340.223 212.802 339.875 211.504L339.378 209.649L346.332 207.785L347.873 213.535L353.808 211.944L355.423 217.972L349.488 219.562L352.084 229.252C352.316 230.118 352.666 230.803 353.132 231.307C353.59 231.781 354.181 232.07 354.905 232.174C355.628 232.278 356.469 232.202 357.427 231.945C357.644 231.887 357.887 231.805 358.157 231.7C358.427 231.594 358.712 231.485 359.013 231.371L360.591 237.259C360.144 237.445 359.635 237.648 359.064 237.867C358.493 238.086 357.945 238.266 357.42 238.407ZM377.009 233.456C374.32 234.177 371.829 234.215 369.536 233.571C367.235 232.895 365.274 231.698 363.654 229.979C362.034 228.259 360.896 226.179 360.242 223.737C359.563 221.202 359.515 218.797 360.097 216.52C360.711 214.236 361.823 212.265 363.433 210.608C365.043 208.951 367.053 207.799 369.464 207.153C371.473 206.615 373.337 206.463 375.057 206.698C376.768 206.902 378.302 207.435 379.66 208.297C381.048 209.151 382.223 210.261 383.185 211.626C384.139 212.961 384.852 214.509 385.324 216.271C385.457 216.765 385.558 217.268 385.629 217.779C385.722 218.251 385.753 218.674 385.72 219.047L366.757 224.128L365.391 219.028L380.413 215.003L377.767 218.296C377.72 216.884 377.39 215.713 376.776 214.784C376.155 213.825 375.333 213.167 374.31 212.812C373.31 212.417 372.191 212.385 370.955 212.717C369.749 213.04 368.793 213.611 368.084 214.43C367.376 215.249 366.959 216.289 366.833 217.548C366.707 218.808 366.909 220.244 367.441 221.858C367.698 223.313 368.204 224.519 368.957 225.477C369.711 226.434 370.649 227.094 371.773 227.455C372.889 227.786 374.127 227.769 375.487 227.404C376.723 227.073 377.708 226.544 378.441 225.818C379.205 225.083 379.718 224.217 379.98 223.219L386.252 224.371C386.089 225.739 385.591 227.032 384.757 228.25C383.955 229.459 382.898 230.52 381.586 231.435C380.266 232.319 378.74 232.993 377.009 233.456ZM233.318 315.879L224.063 281.337L237.323 277.784C239.703 277.147 241.917 277.001 243.964 277.347C246.042 277.684 247.826 278.531 249.316 279.888C250.806 281.245 251.874 283.128 252.52 285.539C253.149 287.888 253.143 290.027 252.5 291.955C251.888 293.875 250.77 295.516 249.148 296.878C247.548 298.202 245.573 299.178 243.224 299.807L237.15 301.435L240.505 313.953L233.318 315.879ZM235.473 295.176L241.593 293.536C242.613 293.262 243.44 292.826 244.075 292.225C244.709 291.624 245.131 290.915 245.343 290.096C245.585 289.269 245.582 288.392 245.333 287.465C245.077 286.507 244.637 285.73 244.013 285.135C243.421 284.532 242.7 284.129 241.851 283.926C241.001 283.723 240.066 283.758 239.046 284.031L232.926 285.671L235.473 295.176ZM274.355 305.479C271.666 306.2 269.175 306.238 266.882 305.593C264.581 304.918 262.62 303.721 261 302.001C259.38 300.282 258.243 298.202 257.588 295.76C256.909 293.225 256.861 290.82 257.444 288.543C258.057 286.259 259.169 284.288 260.779 282.631C262.389 280.973 264.399 279.822 266.81 279.176C268.819 278.638 270.684 278.486 272.403 278.721C274.114 278.925 275.648 279.458 277.006 280.32C278.394 281.174 279.569 282.283 280.532 283.649C281.485 284.984 282.198 286.532 282.671 288.294C282.803 288.788 282.905 289.291 282.975 289.802C283.069 290.274 283.099 290.697 283.067 291.07L264.103 296.151L262.737 291.051L277.759 287.026L275.113 290.319C275.066 288.907 274.736 287.736 274.123 286.807C273.501 285.848 272.679 285.19 271.656 284.835C270.656 284.44 269.537 284.408 268.301 284.74C267.096 285.063 266.139 285.634 265.431 286.453C264.723 287.272 264.305 288.311 264.179 289.571C264.053 290.831 264.255 292.267 264.787 293.881C265.044 295.335 265.55 296.542 266.303 297.499C267.057 298.457 267.996 299.117 269.119 299.478C270.235 299.808 271.473 299.792 272.833 299.427C274.069 299.096 275.054 298.567 275.787 297.841C276.551 297.106 277.064 296.239 277.327 295.241L283.599 296.393C283.435 297.762 282.937 299.055 282.104 300.273C281.301 301.481 280.244 302.543 278.932 303.458C277.612 304.342 276.086 305.016 274.355 305.479ZM290.356 300.596L283.573 275.281L290.064 273.541L291.691 279.615L290.992 278.858C290.977 276.577 291.503 274.895 292.572 273.814C293.663 272.693 295.09 271.897 296.851 271.425L298.335 271.027L299.95 277.054L297.771 277.638C296.071 278.094 294.836 278.988 294.067 280.32C293.289 281.622 293.153 283.215 293.658 285.101L297.311 298.732L290.356 300.596ZM307.939 306.916C307.475 307.04 307.019 307.13 306.569 307.184C306.097 307.277 305.699 307.334 305.373 307.355L303.783 301.421C304.333 301.373 304.871 301.278 305.396 301.137C306.726 300.781 307.64 300.238 308.14 299.508C308.671 298.769 308.787 297.843 308.489 296.731L301.458 270.488L308.412 268.625L315.444 294.867C315.974 296.845 316.024 298.638 315.593 300.244C315.201 301.873 314.343 303.246 313.019 304.362C311.734 305.502 310.041 306.353 307.939 306.916ZM300.849 268.217L298.985 261.262L305.94 259.398L307.804 266.353L300.849 268.217ZM328.269 291.033C326.446 291.522 324.791 291.65 323.304 291.419C321.818 291.188 320.574 290.627 319.573 289.736C318.564 288.813 317.857 287.595 317.451 286.08C317.07 284.659 317.059 283.32 317.418 282.064C317.769 280.777 318.51 279.585 319.64 278.487C320.801 277.381 322.345 276.404 324.272 275.556L331.679 272.23L333.046 277.33L326.865 280.228C325.926 280.679 325.255 281.206 324.854 281.811C324.445 282.384 324.352 283.088 324.575 283.923C324.782 284.696 325.237 285.22 325.941 285.495C326.644 285.77 327.428 285.792 328.294 285.56C329.437 285.254 330.376 284.737 331.109 284.011C331.842 283.284 332.328 282.442 332.568 281.483C332.831 280.485 332.825 279.476 332.552 278.456L330.788 271.872C330.531 270.914 329.93 270.214 328.983 269.772C328.067 269.322 326.96 269.27 325.662 269.618C324.426 269.95 323.419 270.584 322.643 271.52C321.898 272.449 321.459 273.527 321.324 274.756L315.052 273.604C315.166 272.05 315.627 270.618 316.435 269.308C317.244 267.998 318.331 266.862 319.696 265.9C321.062 264.937 322.641 264.216 324.434 263.736C326.566 263.164 328.555 263.045 330.401 263.379C332.246 263.713 333.803 264.455 335.072 265.606C336.364 266.718 337.254 268.185 337.743 270.009L342.215 286.7L335.724 288.439L334.631 284.359L336.133 283.659C335.689 284.97 335.118 286.117 334.421 287.099C333.715 288.05 332.851 288.845 331.829 289.483C330.816 290.152 329.629 290.669 328.269 291.033ZM347.316 285.333L337.911 250.235L344.866 248.372L354.27 283.47L347.316 285.333ZM367.344 280.563C365.52 281.052 363.865 281.18 362.379 280.949C360.892 280.718 359.649 280.157 358.648 279.266C357.639 278.343 356.931 277.125 356.526 275.61C356.145 274.188 356.134 272.85 356.493 271.594C356.844 270.307 357.585 269.115 358.715 268.017C359.876 266.911 361.42 265.934 363.346 265.086L370.754 261.76L372.12 266.86L365.94 269.758C365 270.209 364.33 270.736 363.929 271.341C363.519 271.914 363.426 272.618 363.65 273.453C363.857 274.226 364.312 274.75 365.015 275.025C365.719 275.3 366.503 275.322 367.368 275.09C368.512 274.784 369.45 274.267 370.183 273.541C370.916 272.814 371.403 271.972 371.643 271.013C371.906 270.015 371.9 269.006 371.627 267.986L369.863 261.402C369.606 260.444 369.004 259.744 368.058 259.302C367.142 258.852 366.035 258.8 364.737 259.148C363.5 259.479 362.494 260.114 361.718 261.05C360.973 261.979 360.533 263.057 360.399 264.286L354.127 263.134C354.24 261.58 354.701 260.148 355.51 258.838C356.318 257.528 357.405 256.392 358.771 255.43C360.136 254.467 361.716 253.746 363.508 253.266C365.641 252.694 367.63 252.575 369.475 252.909C371.321 253.243 372.878 253.985 374.147 255.136C375.439 256.248 376.329 257.715 376.817 259.539L381.29 276.23L374.799 277.969L373.706 273.889L375.207 273.189C374.764 274.5 374.193 275.647 373.495 276.629C372.79 277.58 371.926 278.375 370.904 279.013C369.891 279.682 368.704 280.199 367.344 280.563ZM386.39 274.863L379.607 249.548L386.098 247.809L387.44 252.816L386.771 251.803C386.952 250.131 387.597 248.766 388.705 247.707C389.835 246.609 391.281 245.824 393.043 245.352C394.959 244.838 396.736 244.793 398.373 245.216C400.041 245.63 401.472 246.456 402.665 247.693C403.849 248.9 404.698 250.461 405.212 252.378L409.573 268.652L402.618 270.515L398.655 255.725C398.39 254.736 397.961 253.94 397.369 253.336C396.807 252.725 396.117 252.313 395.299 252.102C394.511 251.882 393.654 251.897 392.726 252.145C391.83 252.386 391.08 252.802 390.477 253.394C389.874 253.986 389.466 254.692 389.255 255.51C389.075 256.321 389.117 257.22 389.382 258.21L393.345 273L386.39 274.863ZM422.13 265.883C420.307 266.372 418.651 266.501 417.165 266.269C415.679 266.038 414.435 265.477 413.434 264.586C412.425 263.663 411.718 262.445 411.312 260.93C410.931 259.509 410.92 258.17 411.279 256.914C411.63 255.627 412.371 254.435 413.501 253.337C414.662 252.231 416.206 251.254 418.132 250.407L425.54 247.08L426.906 252.18L420.726 255.078C419.787 255.529 419.116 256.056 418.715 256.661C418.305 257.234 418.212 257.938 418.436 258.773C418.643 259.546 419.098 260.07 419.802 260.345C420.505 260.621 421.289 260.642 422.155 260.41C423.298 260.104 424.237 259.587 424.97 258.861C425.702 258.135 426.189 257.292 426.429 256.333C426.692 255.335 426.686 254.326 426.413 253.306L424.649 246.722C424.392 245.764 423.79 245.064 422.844 244.622C421.928 244.172 420.821 244.12 419.523 244.468C418.286 244.8 417.28 245.434 416.504 246.37C415.759 247.299 415.319 248.377 415.185 249.606L408.913 248.454C409.026 246.9 409.488 245.468 410.296 244.158C411.105 242.848 412.192 241.712 413.557 240.75C414.923 239.787 416.502 239.066 418.294 238.586C420.427 238.014 422.416 237.895 424.261 238.229C426.107 238.563 427.664 239.305 428.933 240.456C430.225 241.568 431.115 243.035 431.604 244.859L436.076 261.55L429.585 263.289L428.492 259.209L429.994 258.509C429.55 259.82 428.979 260.967 428.282 261.949C427.576 262.9 426.712 263.695 425.69 264.333C424.677 265.002 423.49 265.519 422.13 265.883ZM441.176 260.183L434.393 234.868L440.884 233.129L442.226 238.137L441.557 237.123C441.738 235.451 442.383 234.086 443.491 233.027C444.621 231.929 446.067 231.144 447.829 230.672C449.745 230.159 451.522 230.113 453.159 230.536C454.827 230.95 456.258 231.776 457.451 233.013C458.635 234.22 459.485 235.781 459.998 237.698L464.359 253.972L457.404 255.835L453.441 241.045C453.176 240.056 452.747 239.26 452.155 238.656C451.593 238.045 450.903 237.633 450.085 237.422C449.297 237.203 448.44 237.217 447.512 237.465C446.616 237.706 445.866 238.122 445.263 238.714C444.66 239.307 444.252 240.012 444.041 240.831C443.861 241.641 443.903 242.541 444.168 243.53L448.131 258.32L441.176 260.183Z" fill="white"/>
</svg>
