<svg width="700" height="500" viewBox="0 0 700 500" fill="none" xmlns="http://www.w3.org/2000/svg">
<circle cx="350" cy="250" r="250" fill="#2C8FCE"/>
<rect x="34.7542" y="233.178" width="600" height="150" rx="10" transform="rotate(-10 34.7542 233.178)" fill="#2C8FCE"/>
<rect x="27.7542" y="227.178" width="600" height="150" rx="10" transform="rotate(-10 27.7542 227.178)" fill="#1AA5DC"/>
<path d="M286.174 252.517L279.964 217.3L293.436 214.925C295.863 214.497 298.081 214.545 300.09 215.068C302.131 215.585 303.835 216.585 305.201 218.066C306.567 219.547 307.466 221.517 307.9 223.975C308.322 226.37 308.132 228.516 307.329 230.412C306.52 232.277 305.261 233.798 303.552 234.977L314.064 247.599L305.839 249.05L294.398 235.031L299.617 236.987L291.25 238.462L293.501 251.225L286.174 252.517ZM290.125 232.081L296.318 230.989C297.358 230.805 298.22 230.442 298.904 229.899C299.588 229.356 300.071 228.686 300.353 227.889C300.666 227.086 300.739 226.212 300.573 225.267C300.4 224.29 300.03 223.478 299.461 222.831C298.923 222.178 298.24 221.714 297.412 221.438C296.583 221.161 295.649 221.115 294.609 221.298L288.416 222.39L290.125 232.081ZM326.548 245.983C324.468 246.35 322.61 246.222 320.973 245.601C319.363 244.943 318.037 243.877 316.998 242.403C315.958 240.929 315.249 239.121 314.871 236.978L312.112 221.331L319.203 220.081L321.862 235.16C322.034 236.137 322.376 236.971 322.887 237.66C323.425 238.313 324.092 238.78 324.889 239.062C325.686 239.344 326.542 239.404 327.456 239.243C328.401 239.076 329.184 238.727 329.805 238.195C330.458 237.658 330.909 236.993 331.16 236.202C331.436 235.373 331.488 234.47 331.316 233.493L328.657 218.414L335.748 217.164L340.299 242.974L333.681 244.14L332.78 239.035L333.359 240.103C333.032 241.753 332.258 243.075 331.036 244.071C329.841 245.029 328.345 245.666 326.548 245.983ZM357.963 240.151C354.843 240.701 352.27 240.294 350.242 238.929C348.24 237.528 346.972 235.314 346.439 232.289L344.614 221.937L340.265 222.703L339.181 216.558L339.417 216.517C340.741 216.283 341.691 215.775 342.268 214.99C342.876 214.201 343.063 213.144 342.83 211.821L342.496 209.93L349.587 208.68L350.621 214.541L356.671 213.474L357.755 219.62L351.704 220.686L353.446 230.566C353.602 231.448 353.89 232.161 354.311 232.704C354.726 233.216 355.289 233.555 356.001 233.722C356.713 233.889 357.557 233.887 358.534 233.714C358.755 233.675 359.004 233.615 359.282 233.534C359.56 233.452 359.854 233.368 360.164 233.281L361.222 239.284C360.761 239.431 360.236 239.588 359.648 239.757C359.061 239.925 358.499 240.057 357.963 240.151ZM377.909 236.927C375.168 237.41 372.683 237.231 370.455 236.389C368.221 235.516 366.372 234.152 364.908 232.298C363.444 230.444 362.492 228.272 362.053 225.783C361.598 223.199 361.759 220.798 362.538 218.581C363.349 216.359 364.628 214.492 366.376 212.982C368.124 211.471 370.228 210.499 372.686 210.066C374.734 209.704 376.605 209.716 378.297 210.1C379.984 210.452 381.466 211.117 382.743 212.094C384.051 213.066 385.125 214.273 385.965 215.718C386.799 217.13 387.374 218.735 387.691 220.531C387.78 221.035 387.837 221.545 387.863 222.06C387.915 222.539 387.908 222.962 387.844 223.331L368.51 226.74L367.593 221.54L382.909 218.84L379.986 221.89C380.062 220.479 379.835 219.284 379.305 218.305C378.77 217.295 378.008 216.568 377.02 216.125C376.058 215.645 374.946 215.516 373.686 215.738C372.457 215.955 371.454 216.44 370.677 217.195C369.9 217.949 369.394 218.948 369.159 220.192C368.923 221.436 369 222.884 369.389 224.538C369.518 226.01 369.917 227.256 370.584 228.275C371.251 229.295 372.129 230.034 373.217 230.492C374.299 230.918 375.534 231.009 376.92 230.765C378.181 230.542 379.208 230.101 380.001 229.442C380.826 228.776 381.413 227.958 381.762 226.987L387.91 228.681C387.628 230.03 387.018 231.275 386.082 232.415C385.177 233.549 384.032 234.515 382.645 235.312C381.253 236.077 379.674 236.615 377.909 236.927ZM227.582 306.512L221.372 271.295L234.892 268.911C237.318 268.483 239.536 268.531 241.545 269.054C243.586 269.572 245.29 270.571 246.656 272.052C248.022 273.534 248.921 275.503 249.355 277.961C249.777 280.356 249.584 282.486 248.776 284.351C247.999 286.21 246.742 287.748 245.007 288.963C243.298 290.142 241.246 290.943 238.851 291.365L232.658 292.457L234.909 305.22L227.582 306.512ZM231.533 286.075L237.773 284.975C238.813 284.792 239.675 284.428 240.359 283.885C241.043 283.342 241.526 282.672 241.808 281.875C242.121 281.073 242.194 280.199 242.028 279.253C241.856 278.276 241.485 277.464 240.916 276.817C240.378 276.165 239.695 275.7 238.867 275.424C238.038 275.148 237.104 275.101 236.064 275.285L229.824 276.385L231.533 286.075ZM269.369 299.729C266.627 300.212 264.142 300.033 261.914 299.191C259.681 298.317 257.832 296.954 256.368 295.1C254.904 293.246 253.952 291.074 253.513 288.585C253.057 286 253.219 283.6 253.998 281.383C254.808 279.161 256.088 277.294 257.836 275.784C259.584 274.273 261.687 273.301 264.145 272.868C266.194 272.506 268.064 272.518 269.757 272.902C271.443 273.254 272.925 273.919 274.202 274.896C275.511 275.868 276.585 277.075 277.425 278.52C278.258 279.932 278.834 281.537 279.151 283.333C279.239 283.837 279.297 284.347 279.323 284.862C279.375 285.341 279.368 285.764 279.303 286.133L259.969 289.542L259.053 284.342L274.368 281.642L271.445 284.692C271.522 283.281 271.295 282.086 270.765 281.107C270.229 280.097 269.467 279.37 268.479 278.927C267.517 278.447 266.406 278.318 265.146 278.54C263.916 278.757 262.914 279.242 262.137 279.997C261.36 280.751 260.854 281.75 260.618 282.994C260.383 284.238 260.459 285.686 260.848 287.34C260.978 288.812 261.376 290.058 262.043 291.077C262.711 292.097 263.588 292.836 264.676 293.294C265.759 293.72 266.993 293.811 268.38 293.567C269.641 293.344 270.668 292.903 271.461 292.244C272.286 291.578 272.873 290.76 273.222 289.789L279.369 291.483C279.087 292.832 278.478 294.077 277.542 295.217C276.637 296.351 275.491 297.317 274.105 298.114C272.712 298.879 271.134 299.417 269.369 299.729ZM285.735 296.258L281.184 270.448L287.802 269.281L288.894 275.474L288.263 274.659C288.446 272.384 289.118 270.755 290.276 269.771C291.461 268.75 292.951 268.081 294.748 267.764L296.26 267.497L297.344 273.642L295.122 274.034C293.389 274.34 292.081 275.123 291.199 276.383C290.31 277.612 290.036 279.188 290.375 281.11L292.825 295.008L285.735 296.258ZM302.7 304.087C302.227 304.17 301.764 304.219 301.312 304.234C300.834 304.286 300.432 304.308 300.105 304.301L299.038 298.25C299.591 298.25 300.135 298.203 300.671 298.108C302.026 297.87 302.984 297.408 303.546 296.724C304.139 296.035 304.336 295.123 304.136 293.988L299.418 267.233L306.509 265.983L311.226 292.738C311.582 294.755 311.475 296.545 310.906 298.107C310.374 299.696 309.399 300.989 307.983 301.986C306.604 303.009 304.843 303.709 302.7 304.087ZM299.01 264.917L297.759 257.826L304.85 256.576L306.1 263.666L299.01 264.917ZM324.337 290.036C322.478 290.364 320.818 290.348 319.357 289.988C317.897 289.628 316.707 288.961 315.787 287.986C314.862 286.979 314.264 285.704 313.992 284.159C313.736 282.71 313.842 281.375 314.309 280.155C314.771 278.904 315.613 277.781 316.834 276.786C318.088 275.785 319.711 274.946 321.703 274.27L329.373 271.602L330.289 276.802L323.88 279.15C322.905 279.517 322.191 279.984 321.739 280.551C321.281 281.087 321.127 281.78 321.277 282.631C321.416 283.419 321.823 283.981 322.5 284.316C323.177 284.652 323.956 284.742 324.838 284.586C326.004 284.381 326.984 283.948 327.778 283.288C328.571 282.628 329.129 281.831 329.452 280.897C329.801 279.926 329.883 278.92 329.7 277.88L328.516 271.168C328.344 270.191 327.806 269.441 326.901 268.918C326.028 268.39 324.93 268.242 323.606 268.476C322.346 268.698 321.288 269.242 320.433 270.107C319.61 270.967 319.078 272.003 318.837 273.216L312.689 271.522C312.938 269.983 313.522 268.597 314.442 267.362C315.361 266.128 316.543 265.091 317.987 264.251C319.431 263.412 321.067 262.831 322.895 262.508C325.07 262.125 327.061 262.18 328.871 262.673C330.68 263.167 332.166 264.042 333.33 265.299C334.52 266.519 335.279 268.058 335.607 269.918L338.607 286.935L331.99 288.102L331.256 283.942L332.813 283.375C332.257 284.643 331.589 285.736 330.808 286.653C330.022 287.539 329.092 288.255 328.019 288.802C326.951 289.38 325.724 289.792 324.337 290.036ZM343.808 286.018L337.498 250.234L344.589 248.984L350.898 284.768L343.808 286.018ZM364.176 283.012C362.316 283.339 360.656 283.323 359.196 282.964C357.735 282.604 356.545 281.936 355.626 280.961C354.701 279.954 354.102 278.679 353.83 277.135C353.574 275.685 353.68 274.351 354.148 273.131C354.609 271.88 355.451 270.756 356.673 269.761C357.926 268.76 359.549 267.922 361.542 267.245L369.211 264.577L370.128 269.777L363.718 272.126C362.743 272.493 362.03 272.96 361.577 273.527C361.119 274.062 360.965 274.756 361.115 275.607C361.254 276.394 361.662 276.956 362.339 277.292C363.015 277.627 363.795 277.717 364.677 277.562C365.843 277.356 366.823 276.923 367.616 276.264C368.41 275.604 368.968 274.807 369.29 273.873C369.639 272.901 369.722 271.896 369.538 270.856L368.355 264.143C368.183 263.166 367.644 262.416 366.74 261.894C365.867 261.365 364.768 261.218 363.445 261.451C362.184 261.673 361.127 262.217 360.272 263.083C359.449 263.943 358.917 264.979 358.675 266.191L352.528 264.497C352.776 262.958 353.36 261.572 354.28 260.337C355.2 259.103 356.382 258.066 357.826 257.227C359.27 256.387 360.906 255.806 362.734 255.484C364.908 255.1 366.9 255.155 368.709 255.649C370.518 256.142 372.005 257.017 373.169 258.274C374.359 259.494 375.118 261.034 375.445 262.893L378.446 279.91L371.828 281.077L371.095 276.918L372.652 276.351C372.096 277.618 371.427 278.711 370.647 279.629C369.86 280.514 368.931 281.231 367.857 281.778C366.79 282.356 365.562 282.767 364.176 283.012ZM383.646 278.994L379.095 253.184L385.713 252.017L386.613 257.122L386.035 256.054C386.362 254.404 387.123 253.1 388.319 252.142C389.54 251.147 391.049 250.491 392.846 250.174C394.799 249.83 396.573 249.939 398.167 250.503C399.793 251.061 401.146 252.009 402.227 253.345C403.302 254.651 404.011 256.28 404.356 258.234L407.282 274.826L400.191 276.076L397.532 260.997C397.354 259.988 396.997 259.158 396.459 258.505C395.953 257.847 395.302 257.377 394.505 257.095C393.739 256.808 392.884 256.748 391.938 256.914C391.024 257.075 390.241 257.425 389.588 257.962C388.936 258.5 388.469 259.167 388.187 259.964C387.936 260.755 387.9 261.655 388.078 262.664L390.737 277.743L383.646 278.994ZM420.033 273.162C418.173 273.49 416.513 273.474 415.053 273.115C413.592 272.755 412.402 272.087 411.483 271.112C410.558 270.105 409.959 268.83 409.687 267.286C409.432 265.836 409.537 264.501 410.005 263.282C410.466 262.031 411.308 260.907 412.53 259.912C413.783 258.911 415.406 258.073 417.399 257.396L425.068 254.728L425.985 259.928L419.576 262.276C418.6 262.643 417.887 263.11 417.434 263.678C416.976 264.213 416.822 264.907 416.972 265.757C417.111 266.545 417.519 267.107 418.196 267.443C418.872 267.778 419.652 267.868 420.534 267.713C421.7 267.507 422.68 267.074 423.473 266.415C424.267 265.755 424.825 264.958 425.148 264.023C425.496 263.052 425.579 262.047 425.395 261.007L424.212 254.294C424.04 253.317 423.501 252.567 422.597 252.044C421.724 251.516 420.625 251.368 419.302 251.602C418.041 251.824 416.984 252.368 416.129 253.234C415.306 254.094 414.774 255.13 414.532 256.342L408.385 254.648C408.633 253.109 409.218 251.723 410.137 250.488C411.057 249.254 412.239 248.217 413.683 247.377C415.127 246.538 416.763 245.957 418.591 245.635C420.765 245.251 422.757 245.306 424.566 245.8C426.375 246.293 427.862 247.168 429.026 248.425C430.216 249.645 430.975 251.185 431.302 253.044L434.303 270.061L427.685 271.228L426.952 267.068L428.509 266.501C427.953 267.769 427.284 268.862 426.504 269.779C425.718 270.665 424.788 271.382 423.714 271.928C422.647 272.507 421.419 272.918 420.033 273.162ZM439.503 269.144L434.952 243.335L441.57 242.168L442.47 247.273L441.892 246.205C442.219 244.555 442.98 243.251 444.176 242.293C445.397 241.298 446.906 240.642 448.703 240.325C450.656 239.981 452.43 240.09 454.025 240.654C455.65 241.212 457.003 242.16 458.084 243.496C459.159 244.801 459.869 246.431 460.213 248.385L463.139 264.977L456.048 266.227L453.389 251.148C453.211 250.139 452.854 249.309 452.316 248.656C451.81 247.998 451.159 247.528 450.362 247.246C449.596 246.959 448.741 246.898 447.795 247.065C446.881 247.226 446.098 247.576 445.445 248.113C444.793 248.651 444.326 249.318 444.044 250.115C443.793 250.906 443.757 251.806 443.935 252.815L446.594 267.894L439.503 269.144Z" fill="white"/>
</svg>
