<svg width="700" height="303" viewBox="0 0 700 303" fill="none" xmlns="http://www.w3.org/2000/svg">
<rect x="34.031" y="160.145" width="600" height="150" rx="10" transform="rotate(-15 34.031 160.145)" fill="#2C8FCE"/>
<rect x="27.031" y="154.145" width="600" height="150" rx="10" transform="rotate(-15 27.031 154.145)" fill="#1AA5DC"/>
<path d="M286.981 156.983L277.726 122.441L290.94 118.901C293.32 118.263 295.534 118.117 297.581 118.463C299.659 118.801 301.443 119.648 302.933 121.004C304.423 122.361 305.491 124.245 306.137 126.656C306.766 129.005 306.764 131.159 306.129 133.118C305.486 135.046 304.365 136.672 302.765 137.995L314.336 149.653L306.269 151.815L293.651 138.847L299.02 140.34L290.814 142.539L294.168 155.057L286.981 156.983ZM289.136 136.28L295.21 134.652C296.23 134.379 297.057 133.942 297.691 133.341C298.326 132.741 298.748 132.031 298.96 131.213C299.202 130.386 299.199 129.509 298.95 128.581C298.694 127.623 298.254 126.847 297.63 126.252C297.038 125.648 296.317 125.245 295.468 125.042C294.618 124.839 293.683 124.874 292.663 125.148L286.59 126.775L289.136 136.28ZM326.633 146.955C324.593 147.501 322.73 147.537 321.046 147.06C319.384 146.545 317.97 145.599 316.806 144.221C315.642 142.843 314.778 141.104 314.215 139.002L310.103 123.655L317.058 121.792L321.021 136.582C321.277 137.54 321.691 138.34 322.26 138.983C322.853 139.586 323.558 139.993 324.377 140.205C325.195 140.416 326.053 140.402 326.949 140.161C327.876 139.913 328.626 139.497 329.199 138.913C329.802 138.32 330.194 137.619 330.374 136.809C330.577 135.959 330.55 135.055 330.294 134.097L326.33 119.307L333.285 117.443L340.068 142.758L333.577 144.498L332.236 139.49L332.905 140.504C332.723 142.176 332.067 143.561 330.937 144.659C329.829 145.717 328.394 146.483 326.633 146.955ZM357.42 138.407C354.36 139.227 351.76 139.046 349.621 137.863C347.505 136.641 346.049 134.547 345.254 131.579L342.533 121.425L338.268 122.568L336.653 116.541L336.885 116.479C338.183 116.131 339.085 115.542 339.591 114.71C340.128 113.871 340.223 112.802 339.875 111.504L339.378 109.649L346.332 107.785L347.873 113.535L353.808 111.944L355.423 117.972L349.488 119.562L352.084 129.252C352.316 130.118 352.666 130.803 353.132 131.307C353.59 131.781 354.181 132.07 354.905 132.174C355.628 132.278 356.469 132.202 357.427 131.945C357.644 131.887 357.887 131.805 358.157 131.7C358.427 131.594 358.712 131.485 359.013 131.371L360.591 137.259C360.144 137.445 359.635 137.648 359.064 137.867C358.493 138.086 357.945 138.266 357.42 138.407ZM377.009 133.456C374.32 134.177 371.829 134.215 369.536 133.571C367.235 132.895 365.274 131.698 363.654 129.979C362.034 128.259 360.896 126.179 360.242 123.737C359.563 121.202 359.515 118.797 360.097 116.52C360.711 114.236 361.823 112.265 363.433 110.608C365.043 108.951 367.053 107.799 369.464 107.153C371.473 106.615 373.337 106.463 375.057 106.698C376.768 106.902 378.302 107.435 379.66 108.297C381.048 109.151 382.223 110.261 383.185 111.626C384.139 112.961 384.852 114.509 385.324 116.271C385.457 116.765 385.558 117.268 385.629 117.779C385.722 118.251 385.753 118.674 385.72 119.047L366.757 124.128L365.391 119.028L380.413 115.003L377.767 118.296C377.72 116.884 377.39 115.713 376.776 114.784C376.155 113.825 375.333 113.167 374.31 112.812C373.31 112.417 372.191 112.385 370.955 112.717C369.749 113.04 368.793 113.611 368.084 114.43C367.376 115.249 366.959 116.289 366.833 117.548C366.707 118.808 366.909 120.244 367.441 121.858C367.698 123.313 368.204 124.519 368.957 125.477C369.711 126.434 370.649 127.094 371.773 127.455C372.889 127.786 374.127 127.769 375.487 127.404C376.723 127.073 377.708 126.544 378.441 125.818C379.205 125.083 379.718 124.217 379.98 123.219L386.252 124.371C386.089 125.739 385.591 127.032 384.757 128.25C383.955 129.459 382.898 130.52 381.586 131.435C380.266 132.319 378.74 132.993 377.009 133.456ZM233.318 215.879L224.063 181.337L237.323 177.784C239.703 177.147 241.917 177.001 243.964 177.347C246.042 177.684 247.826 178.531 249.316 179.888C250.806 181.245 251.874 183.128 252.52 185.539C253.149 187.888 253.143 190.027 252.5 191.955C251.888 193.875 250.77 195.516 249.148 196.878C247.548 198.202 245.573 199.178 243.224 199.807L237.15 201.435L240.505 213.953L233.318 215.879ZM235.473 195.176L241.593 193.536C242.613 193.262 243.44 192.826 244.075 192.225C244.709 191.624 245.131 190.915 245.343 190.096C245.585 189.269 245.582 188.392 245.333 187.465C245.077 186.507 244.637 185.73 244.013 185.135C243.421 184.532 242.7 184.129 241.851 183.926C241.001 183.723 240.066 183.758 239.046 184.031L232.926 185.671L235.473 195.176ZM274.355 205.479C271.666 206.2 269.175 206.238 266.882 205.593C264.581 204.918 262.62 203.721 261 202.001C259.38 200.282 258.243 198.202 257.588 195.76C256.909 193.225 256.861 190.82 257.444 188.543C258.057 186.259 259.169 184.288 260.779 182.631C262.389 180.973 264.399 179.822 266.81 179.176C268.819 178.638 270.684 178.486 272.403 178.721C274.114 178.925 275.648 179.458 277.006 180.32C278.394 181.174 279.569 182.283 280.532 183.649C281.485 184.984 282.198 186.532 282.671 188.294C282.803 188.788 282.905 189.291 282.975 189.802C283.069 190.274 283.099 190.697 283.067 191.07L264.103 196.151L262.737 191.051L277.759 187.026L275.113 190.319C275.066 188.907 274.736 187.736 274.123 186.807C273.501 185.848 272.679 185.19 271.656 184.835C270.656 184.44 269.537 184.408 268.301 184.74C267.096 185.063 266.139 185.634 265.431 186.453C264.723 187.272 264.305 188.311 264.179 189.571C264.053 190.831 264.255 192.267 264.787 193.881C265.044 195.335 265.55 196.542 266.303 197.499C267.057 198.457 267.996 199.117 269.119 199.478C270.235 199.808 271.473 199.792 272.833 199.427C274.069 199.096 275.054 198.567 275.787 197.841C276.551 197.106 277.064 196.239 277.327 195.241L283.599 196.393C283.435 197.762 282.937 199.055 282.104 200.273C281.301 201.481 280.244 202.543 278.932 203.458C277.612 204.342 276.086 205.016 274.355 205.479ZM290.356 200.596L283.573 175.281L290.064 173.541L291.691 179.615L290.992 178.858C290.977 176.577 291.503 174.895 292.572 173.814C293.663 172.693 295.09 171.897 296.851 171.425L298.335 171.027L299.95 177.054L297.771 177.638C296.071 178.094 294.836 178.988 294.067 180.32C293.289 181.622 293.153 183.215 293.658 185.101L297.311 198.732L290.356 200.596ZM307.939 206.916C307.475 207.04 307.019 207.13 306.569 207.184C306.097 207.277 305.699 207.334 305.373 207.355L303.783 201.421C304.333 201.373 304.871 201.278 305.396 201.137C306.726 200.781 307.64 200.238 308.14 199.508C308.671 198.769 308.787 197.843 308.489 196.731L301.458 170.488L308.412 168.625L315.444 194.867C315.974 196.845 316.024 198.638 315.593 200.244C315.201 201.873 314.343 203.246 313.019 204.362C311.734 205.502 310.041 206.353 307.939 206.916ZM300.849 168.217L298.985 161.262L305.94 159.398L307.804 166.353L300.849 168.217ZM328.269 191.033C326.446 191.522 324.791 191.65 323.304 191.419C321.818 191.188 320.574 190.627 319.573 189.736C318.564 188.813 317.857 187.595 317.451 186.08C317.07 184.659 317.059 183.32 317.418 182.064C317.769 180.777 318.51 179.585 319.64 178.487C320.801 177.381 322.345 176.404 324.272 175.556L331.679 172.23L333.046 177.33L326.865 180.228C325.926 180.679 325.255 181.206 324.854 181.811C324.445 182.384 324.352 183.088 324.575 183.923C324.782 184.696 325.237 185.22 325.941 185.495C326.644 185.77 327.428 185.792 328.294 185.56C329.437 185.254 330.376 184.737 331.109 184.011C331.842 183.284 332.328 182.442 332.568 181.483C332.831 180.485 332.825 179.476 332.552 178.456L330.788 171.872C330.531 170.914 329.93 170.214 328.983 169.772C328.067 169.322 326.96 169.27 325.662 169.618C324.426 169.95 323.419 170.584 322.643 171.52C321.898 172.449 321.459 173.527 321.324 174.756L315.052 173.604C315.166 172.05 315.627 170.618 316.435 169.308C317.244 167.998 318.331 166.862 319.696 165.9C321.062 164.937 322.641 164.216 324.434 163.736C326.566 163.164 328.555 163.045 330.401 163.379C332.246 163.713 333.803 164.455 335.072 165.606C336.364 166.718 337.254 168.185 337.743 170.009L342.215 186.7L335.724 188.439L334.631 184.359L336.133 183.659C335.689 184.97 335.118 186.117 334.421 187.099C333.715 188.05 332.851 188.845 331.829 189.483C330.816 190.152 329.629 190.669 328.269 191.033ZM347.316 185.333L337.911 150.235L344.866 148.372L354.27 183.47L347.316 185.333ZM367.344 180.563C365.52 181.052 363.865 181.18 362.379 180.949C360.892 180.718 359.649 180.157 358.648 179.266C357.639 178.343 356.931 177.125 356.526 175.61C356.145 174.188 356.134 172.85 356.493 171.594C356.844 170.307 357.585 169.115 358.715 168.017C359.876 166.911 361.42 165.934 363.346 165.086L370.754 161.76L372.12 166.86L365.94 169.758C365 170.209 364.33 170.736 363.929 171.341C363.519 171.914 363.426 172.618 363.65 173.453C363.857 174.226 364.312 174.75 365.015 175.025C365.719 175.3 366.503 175.322 367.368 175.09C368.512 174.784 369.45 174.267 370.183 173.541C370.916 172.814 371.403 171.972 371.643 171.013C371.906 170.015 371.9 169.006 371.627 167.986L369.863 161.402C369.606 160.444 369.004 159.744 368.058 159.302C367.142 158.852 366.035 158.8 364.737 159.148C363.5 159.479 362.494 160.114 361.718 161.05C360.973 161.979 360.533 163.057 360.399 164.286L354.127 163.134C354.24 161.58 354.701 160.148 355.51 158.838C356.318 157.528 357.405 156.392 358.771 155.43C360.136 154.467 361.716 153.746 363.508 153.266C365.641 152.694 367.63 152.575 369.475 152.909C371.321 153.243 372.878 153.985 374.147 155.136C375.439 156.248 376.329 157.715 376.817 159.539L381.29 176.23L374.799 177.969L373.706 173.889L375.207 173.189C374.764 174.5 374.193 175.647 373.495 176.629C372.79 177.58 371.926 178.375 370.904 179.013C369.891 179.682 368.704 180.199 367.344 180.563ZM386.39 174.863L379.607 149.548L386.098 147.809L387.44 152.816L386.771 151.803C386.952 150.131 387.597 148.766 388.705 147.707C389.835 146.609 391.281 145.824 393.043 145.352C394.959 144.838 396.736 144.793 398.373 145.216C400.041 145.63 401.472 146.456 402.665 147.693C403.849 148.9 404.698 150.461 405.212 152.378L409.573 168.652L402.618 170.515L398.655 155.725C398.39 154.736 397.961 153.94 397.369 153.336C396.807 152.725 396.117 152.313 395.299 152.102C394.511 151.882 393.654 151.897 392.726 152.145C391.83 152.386 391.08 152.802 390.477 153.394C389.874 153.986 389.466 154.692 389.255 155.51C389.075 156.321 389.117 157.22 389.382 158.21L393.345 173L386.39 174.863ZM422.13 165.883C420.307 166.372 418.651 166.501 417.165 166.269C415.679 166.038 414.435 165.477 413.434 164.586C412.425 163.663 411.718 162.445 411.312 160.93C410.931 159.509 410.92 158.17 411.279 156.914C411.63 155.627 412.371 154.435 413.501 153.337C414.662 152.231 416.206 151.254 418.132 150.407L425.54 147.08L426.906 152.18L420.726 155.078C419.787 155.529 419.116 156.056 418.715 156.661C418.305 157.234 418.212 157.938 418.436 158.773C418.643 159.546 419.098 160.07 419.802 160.345C420.505 160.621 421.289 160.642 422.155 160.41C423.298 160.104 424.237 159.587 424.97 158.861C425.702 158.135 426.189 157.292 426.429 156.333C426.692 155.335 426.686 154.326 426.413 153.306L424.649 146.722C424.392 145.764 423.79 145.064 422.844 144.622C421.928 144.172 420.821 144.12 419.523 144.468C418.286 144.8 417.28 145.434 416.504 146.37C415.759 147.299 415.319 148.377 415.185 149.606L408.913 148.454C409.026 146.9 409.488 145.468 410.296 144.158C411.105 142.848 412.192 141.712 413.557 140.75C414.923 139.787 416.502 139.066 418.294 138.586C420.427 138.014 422.416 137.895 424.261 138.229C426.107 138.563 427.664 139.305 428.933 140.456C430.225 141.568 431.115 143.035 431.604 144.859L436.076 161.55L429.585 163.289L428.492 159.209L429.994 158.509C429.55 159.82 428.979 160.967 428.282 161.949C427.576 162.9 426.712 163.695 425.69 164.333C424.677 165.002 423.49 165.519 422.13 165.883ZM441.176 160.183L434.393 134.868L440.884 133.129L442.226 138.137L441.557 137.123C441.738 135.451 442.383 134.086 443.491 133.027C444.621 131.929 446.067 131.144 447.829 130.672C449.745 130.159 451.522 130.113 453.159 130.536C454.827 130.95 456.258 131.776 457.451 133.013C458.635 134.22 459.485 135.781 459.998 137.698L464.359 153.972L457.404 155.835L453.441 141.045C453.176 140.056 452.747 139.26 452.155 138.656C451.593 138.045 450.903 137.633 450.085 137.422C449.297 137.203 448.44 137.217 447.512 137.465C446.616 137.706 445.866 138.122 445.263 138.714C444.66 139.307 444.252 140.012 444.041 140.831C443.861 141.641 443.903 142.541 444.168 143.53L448.131 158.32L441.176 160.183Z" fill="white"/>
</svg>
