<svg width="1440" height="1024" viewBox="0 0 1440 1024" fill="none" xmlns="http://www.w3.org/2000/svg">
<g clip-path="url(#clip0_46_42)">
<path d="M399.511 555.477C395.965 560.403 395.177 564.551 395.177 577.514V593.588H388.282C383.554 593.588 381.387 594.885 381.387 597.477C381.387 601.107 379.023 602.403 375.083 601.626C374.098 601.626 373.507 667.737 373.507 748.885C373.507 887.33 373.31 896.663 370.158 897.7C368.189 898.478 360.506 898.737 352.823 898.737L339.033 898.219L338.442 862.441C338.048 833.145 337.457 826.922 335.093 826.922C332.532 826.922 332.138 817.589 332.138 763.404C332.138 708.7 331.744 699.885 329.183 699.885C327.607 699.885 326.228 698.07 326.228 695.996C326.228 693.144 324.061 692.107 318.545 692.107C311.256 692.107 310.862 691.848 310.862 683.552C311.059 669.033 310.468 666.7 307.119 665.663C305.149 665.144 303.376 662.292 303.376 658.922C302.982 649.329 302.785 648.552 299.633 646.996C293.92 644.144 290.768 648.292 290.768 658.663C290.768 666.959 289.98 668.774 287.025 668.774C283.676 668.774 283.085 670.848 282.494 680.959C281.903 691.848 281.312 693.663 276.978 694.7L272.053 695.996V802.033C272.053 886.552 271.462 908.33 269.492 909.367C267.522 910.145 266.931 901.848 267.325 869.441C267.522 834.7 267.128 827.959 264.37 825.367C262.597 823.811 261.218 819.922 261.218 816.811C261.218 812.145 260.036 811.367 252.353 811.367C243.882 811.367 243.488 811.885 243.488 818.626C243.488 824.33 242.503 825.885 238.76 826.404C234.426 826.663 233.835 825.626 233.244 815.774L232.653 804.885L219.849 804.367C205.862 803.589 204.089 805.145 204.089 818.626C204.089 823.293 203.498 826.663 202.71 826.145C201.725 825.367 201.134 851.293 201.134 883.441C201.134 921.034 200.346 942.293 199.164 942.293C197.982 942.293 197.194 921.552 197.194 885.256C197.194 844.552 196.603 827.441 194.83 825.626C193.648 824.071 192.269 820.182 191.875 816.552C191.284 811.108 190.299 810.07 184.389 809.811C175.918 809.811 172.569 812.663 173.554 819.404C174.145 823.293 173.16 824.33 168.432 824.33C163.113 824.33 162.719 823.811 162.719 814.219V803.848H149.914C143.019 803.848 136.518 805.145 135.927 806.7C135.139 808.256 134.154 829.515 133.366 853.885C132.578 880.589 131.396 898.219 130.214 898.219C129.032 898.219 128.047 859.848 127.653 789.848C127.456 730.478 128.047 681.737 128.835 681.737C129.82 681.737 130.608 679.922 130.608 677.848C130.608 675.515 128.638 673.959 126.077 673.959C121.94 673.959 121.546 672.922 122.137 664.107C123.122 648.811 122.334 648.033 107.362 648.033H93.7694V660.996V673.959H78.9945H64.2196L63.8256 785.959L63.2346 898.219L57.7186 898.478L52.2027 898.737L52.7937 839.626C53.3847 788.552 52.9907 780.256 50.4297 779.737C48.8537 779.219 47.2777 776.367 47.2777 772.996C47.0807 769.885 46.8837 765.996 46.6867 764.7C46.6867 763.144 42.1557 762.107 36.6398 762.107H26.7898V771.181C26.7898 779.219 26.1988 780.256 21.8649 780.256C18.3189 780.256 16.9399 778.959 16.9399 775.07C16.9399 772.219 17.7279 769.885 18.7129 769.885C21.4709 769.885 19.6979 754.07 16.3489 749.922C14.1819 746.811 12.6059 746.552 9.25695 748.885C7.08997 750.7 5.11998 752.774 4.92298 753.811C3.93799 763.922 4.13499 769.885 5.51398 769.885C6.30197 769.885 7.08997 772.737 7.08997 776.367C7.08997 781.033 6.10497 782.848 3.15 782.848C-0.789978 782.848 -0.789978 784.663 -0.789978 882.663V982.478H728.105H1457V921.552C1457 888.108 1456.21 860.626 1455.42 860.626C1454.44 860.626 1453.85 842.996 1453.85 821.737C1454.05 786.219 1453.85 782.848 1450.7 782.848C1447.94 782.848 1447.15 780.515 1447.15 772.478V762.107H1439.27C1434.54 762.107 1431.19 760.811 1431 758.737C1431 757.181 1430.6 746.811 1430.41 736.181C1430.01 725.552 1429.81 715.181 1429.62 713.367C1429.62 711.811 1427.25 710.255 1424.5 710.255C1419.77 710.255 1419.57 709.478 1419.57 694.7C1419.57 682.515 1420.16 679.144 1422.53 679.144C1426.66 679.144 1426.27 671.366 1422.13 671.107C1420.16 671.107 1412.48 670.848 1404.8 670.848C1383.32 670.848 1384.11 671.885 1384.11 645.44V622.366L1378.79 621.589C1374.26 621.07 1373.08 619.514 1372.68 612.255C1372.29 607.589 1372.88 603.959 1374.26 603.959C1375.64 603.959 1376.23 597.737 1375.84 585.551C1375.25 564.033 1372.09 558.848 1363.62 565.07C1358.89 568.181 1358.5 569.996 1358.5 586.329C1358.5 597.737 1359.29 603.7 1360.47 602.663C1361.65 601.626 1362.44 605.255 1362.44 611.737C1362.44 621.329 1362.05 622.366 1358.11 621.589C1353.97 620.811 1353.58 619.255 1352.98 603.181L1352.39 585.811H1338.21H1323.83L1324.22 602.922C1324.42 617.7 1324.03 620.292 1320.87 621.329C1317.33 622.626 1317.13 627.292 1317.13 718.292V813.959H1297.04H1276.75L1276.94 847.663V881.367H1271.43C1266.5 881.367 1265.91 882.145 1265.91 889.923C1265.91 898.737 1265.91 898.737 1256.06 898.737L1246.21 898.997V863.219C1246.21 833.145 1245.62 827.182 1243.06 825.885C1241.48 825.108 1240.5 823.552 1240.89 822.515C1241.48 821.219 1241.09 818.108 1240.3 814.996C1239.12 810.848 1237.15 809.811 1231.04 810.07C1224.15 810.33 1223.56 810.848 1222.97 818.626C1222.57 823.293 1221.59 826.922 1220.6 826.922C1217.65 826.922 1212.72 818.885 1212.72 814.219C1212.72 806.7 1208.58 804.107 1196.96 804.626L1186.13 804.885L1185.54 813.959C1185.34 818.885 1184.35 824.848 1183.76 826.922C1183.17 828.996 1182.58 845.848 1182.38 864.256C1182.19 886.293 1181.4 898.219 1180.02 898.737C1178.44 899.515 1177.85 894.071 1178.05 882.663C1178.25 871.515 1177.46 864.515 1175.88 862.7C1173.91 860.626 1173.32 849.737 1173.32 821.478C1173.32 788.811 1172.93 782.848 1170.37 782.848C1167.41 782.848 1167.22 782.07 1166.62 772.996C1166.43 770.663 1165.84 767.293 1165.05 765.996C1164.06 763.922 1152.64 763.144 1143.38 764.441C1142.39 764.7 1141.8 768.848 1141.8 773.774V782.848H1129.98H1118.16V845.071V907.293H1113.43C1107.52 907.293 1106.54 903.663 1107.13 879.293C1107.33 867.367 1106.74 860.626 1105.36 860.626C1103.78 860.626 1103.19 848.959 1103.39 824.848C1103.58 785.959 1103.19 782.848 1099.25 782.848C1096.49 782.848 1096.3 782.07 1095.7 772.996C1095.31 766.774 1092.55 761.848 1090.58 763.404C1089.6 764.181 1088.61 761.589 1088.22 757.7C1087.82 751.996 1086.45 750.181 1082.31 749.663C1077.97 748.885 1076.4 750.181 1074.82 755.367C1073.84 758.996 1071.67 762.107 1070.09 762.107C1068.12 762.107 1066.94 765.478 1066.55 771.7C1066.15 778.182 1064.97 781.811 1063 782.07C1061.43 782.33 1056.7 783.107 1052.76 784.144L1045.27 785.7V804.885C1045.27 815.515 1044.48 824.848 1043.3 825.626C1041.92 826.663 1041.33 791.922 1041.33 723.478C1041.33 656.07 1040.54 619.514 1039.36 619.255C1038.38 618.996 1036.21 618.737 1035.03 618.477C1033.65 618.477 1032.47 616.403 1032.47 614.329C1032.47 611.477 1029.91 610.181 1023.21 609.663L1013.75 608.885V597.218C1013.75 586.329 1013.56 585.811 1007.84 585.811C1002.72 585.811 1001.93 584.774 1001.93 578.551C1001.93 573.366 1000.55 570.255 997.599 568.44C992.083 565.329 984.203 569.737 984.203 575.959C984.203 578.811 982.627 580.626 980.263 580.626C977.111 580.626 976.52 582.7 975.929 595.403C975.338 609.144 974.944 610.44 970.413 611.737L965.488 613.033V675.255V737.478L956.229 738.255L946.774 739.033V749.404C946.774 759.256 946.577 759.515 939.879 759.515C932.984 759.515 932.984 759.515 932.984 747.848C932.984 741.367 932.393 736.181 931.802 736.181C931.211 736.181 923.331 741.885 914.072 749.144C904.813 756.144 895.751 762.107 893.584 762.107C889.841 762.107 889.644 763.922 889.644 798.404V834.7H880.976C875.066 834.7 871.914 835.996 871.126 838.589C870.535 840.663 868.171 842.478 866.004 842.478C862.852 842.478 862.064 844.293 862.064 850.256C862.064 856.219 861.276 858.034 858.124 858.034C854.972 858.034 854.381 856.737 854.972 851.552C855.957 845.33 855.563 845.071 844.137 845.071H832.514V872.552C832.514 893.293 831.923 899.774 830.15 898.737C828.18 897.96 827.589 888.626 827.589 863.737C827.589 845.071 826.801 828.996 826.013 827.959C825.225 826.922 824.634 816.552 824.634 804.626C824.634 790.367 823.846 782.848 822.27 782.33C820.891 781.552 819.906 774.552 819.512 763.663C819.315 751.996 818.133 744.737 815.966 741.626C814.193 739.033 812.814 732.552 812.814 726.33C812.814 714.404 810.844 711.552 803.753 713.885C799.616 715.441 799.025 716.996 799.025 726.589C799.025 732.552 798.04 739.293 797.055 741.367C795.676 744.218 795.085 743.181 795.085 736.7V728.404H782.28H769.475V738.774C769.475 744.478 768.687 749.144 767.505 749.144C766.323 749.144 765.535 763.922 765.535 788.033C765.535 812.145 764.747 826.922 763.565 826.922C762.383 826.922 761.595 834.182 761.595 843.774C761.595 853.367 760.807 860.626 759.625 860.626C758.443 860.626 757.655 853.367 757.655 844.034C757.655 834.7 756.867 826.404 755.685 825.626C754.7 824.848 753.715 814.737 753.715 803.33C753.715 786.737 753.124 782.848 750.76 782.848C748.79 782.848 747.805 779.996 747.805 773.774V764.7H736.182H724.362L723.771 772.996L723.18 781.552L710.966 780.774L698.555 779.996V791.663C698.555 798.145 697.767 804.107 696.585 804.885C695.6 805.663 694.615 810.848 694.615 816.293C694.615 825.367 694.221 826.145 688.705 826.404L682.795 826.663V747.589C682.795 680.441 682.401 668.774 679.84 668.774C677.87 668.774 676.885 664.885 676.491 653.996L675.9 639.218L666.641 639.477C661.323 639.737 656.398 639.996 655.216 639.996C654.231 640.255 653.246 645.959 653.246 653.218V666.181H641.426H629.606L629.212 747.07C628.621 826.145 628.621 828.219 624.681 828.219C620.938 828.219 620.741 826.145 620.15 772.996C619.953 736.959 620.347 718.033 621.726 718.033C625.863 718.033 623.696 707.922 619.362 707.144C615.422 706.367 614.831 704.811 615.028 695.218C615.225 684.848 614.831 684.329 609.512 684.329C604.587 684.329 603.996 683.292 603.996 676.552C603.996 670.589 602.814 667.996 598.874 665.663C592.176 661.515 587.448 665.663 586.66 676.292C586.069 683.292 585.281 684.329 580.356 684.329C575.037 684.329 574.643 685.107 574.052 696.515L573.461 708.959L564.202 709.737C558.883 710.255 554.746 711.552 554.746 713.107C554.746 714.404 552.579 715.441 549.821 715.441H544.896V778.959C544.896 819.663 544.108 842.478 542.926 842.478C541.744 842.478 540.956 830.293 540.956 811.367V780.256H536.031C532.485 780.256 531.106 778.959 531.106 775.07C531.106 772.219 532.091 769.885 533.076 769.885C536.622 769.885 535.243 751.996 531.5 749.404C525.984 745.515 520.271 751.478 520.271 761.33C520.271 765.996 520.862 769.885 521.65 769.885C522.635 769.885 523.226 772.737 523.226 776.367C523.226 781.033 522.241 782.848 519.286 782.848C515.937 782.848 515.347 781.033 515.347 771.181C515.347 760.552 514.953 759.515 510.422 759.515H505.497V715.441V671.366H492.692H479.887V657.107V642.848H468.067H456.247V657.107C456.247 664.885 455.459 671.366 454.277 671.366C453.292 671.366 452.307 676.552 452.307 683.033V694.7H443.442H434.577V707.663C434.577 714.663 433.789 720.626 432.607 720.626C431.425 720.626 430.637 697.811 430.637 657.107V593.588H422.757H414.877V577.255C414.877 563.514 414.089 559.885 410.346 555.218C404.633 548.218 404.633 548.218 399.511 555.477Z" fill="#066195"/>
<path d="M1224.32 839.496V849.11L1237.52 849.402L1250.72 849.693V906.213V962.831H1260.18H1269.63V939.038C1269.63 925.928 1270.22 915.245 1271.01 915.148C1272 915.148 1283.82 915.051 1297.8 914.954L1322.82 914.759V945.545V976.427H1328.73H1334.64L1335.04 948.555L1335.63 920.586H1358.68H1381.92V926.025C1381.92 932.046 1382.51 932.337 1393.74 932.337L1400.64 932.24V900.969C1400.83 883.78 1401.42 869.407 1402.21 869.019C1402.8 868.63 1413.64 868.339 1426.25 868.242L1448.9 868.145V929.521V990.994H720.006H-8.88893V974.97C-8.88893 961.374 -8.49493 958.946 -5.93395 958.946C-3.37297 958.946 -2.97897 955.839 -2.97897 937.096C-2.97897 915.925 -2.78197 915.245 0.961003 915.245C4.30998 915.245 4.90098 914.565 4.90098 911.36V907.476H19.6759H34.4508V911.846V916.216H45.2857H56.1206V939.038V961.86H61.0456H65.9706L66.3646 942.243L66.9556 922.723H95.9144C112.068 922.82 126.449 922.917 128.025 922.917C130.586 923.014 130.98 926.899 130.98 952.148C130.98 980.603 130.98 981.282 134.92 981.282C138.86 981.282 138.86 980.603 138.86 944.379V907.476H167.425H195.99V925.442C195.99 942.437 196.187 943.408 199.733 943.408C203.082 943.408 203.476 942.728 203.082 937.581L202.688 931.754H232.434H261.984L261.787 950.692V969.629H266.318H270.849V928.355C270.849 892.326 271.243 887.082 273.804 887.082C275.971 887.082 276.759 885.917 276.759 882.226V877.371H293.11H309.461L309.067 882.226L308.673 887.082H325.221H341.769L342.163 922.723L342.754 958.461L347.088 958.752L351.619 959.043V933.794V908.447H365.409H379.198V905.534V902.62H391.018H402.838V930.783V958.946H410.718H418.598V940.009V921.072H446.178C471 921.072 473.758 921.266 473.955 922.723C474.152 923.694 474.349 934.959 474.546 947.778L474.743 971.086L480.062 971.377L485.578 971.668V935.736C485.578 904.368 485.972 899.707 488.533 899.707C490.503 899.707 491.488 898.638 491.488 896.308V892.909H505.278H519.067V896.793C519.067 898.93 519.855 900.775 521.037 900.775C522.022 900.872 528.523 900.969 535.024 901.066C545.268 901.163 547.435 901.455 548.42 903.106C549.208 904.174 549.602 920.198 549.602 938.747C549.405 972.348 549.405 972.542 553.542 972.542C557.482 972.542 557.679 972.154 557.482 952.343L557.285 932.24L564.18 928.55L571.075 924.956H592.942H614.809L621.113 928.161L627.417 931.366V952.44V973.513H652.042H676.666V924.471C676.666 892.423 677.257 875.428 678.636 875.428C679.621 875.428 680.606 874.554 680.606 873.486C680.606 871.641 681.985 871.544 707.201 871.544H733.796L734.19 911.555L734.781 951.663H741.479C748.374 951.663 751.526 953.605 750.344 957.198C749.95 958.655 751.526 958.946 759.603 958.946H769.256V925.928C769.256 899.998 769.847 893.006 771.62 893.103C773.59 893.297 774.378 891.161 774.772 885.334L775.363 877.371H784.622C793.881 877.371 793.881 877.371 793.881 880.478C793.881 883.392 794.472 883.683 800.185 883.974C806.686 884.266 806.686 884.363 806.686 889.607V894.851H823.43H840.175V920.101V945.35H868.74H897.305V965.744V986.138H903.215H909.125V972.639V959.043L917.399 958.752C925.082 958.461 925.87 958.169 926.461 955.742C927.052 953.119 927.249 953.119 941.827 953.119H956.404V956.033V958.946H970.194H983.984V937.096V915.245H1014.52H1045.05V937.581V959.917H1077.56H1110.06V963.316C1110.06 966.521 1110.46 966.715 1116.96 966.715H1123.85V937.775V908.933H1154.39H1184.92V926.607C1184.92 941.757 1185.32 944.379 1187.88 944.379C1190.44 944.379 1190.83 938.358 1190.83 896.308C1190.83 854.063 1191.23 848.333 1193.79 848.819C1196.35 849.305 1196.74 847.945 1196.74 839.593V829.785H1210.53H1224.32V839.496Z" fill="#D4EBFF"/>
<path d="M1272.19 430.718C1278.6 431.643 1285.02 433.346 1291.43 433.314C1301.57 433.263 1311.68 434.019 1312 447.837C1312.33 461.758 1302.51 463.025 1292.16 462.91C1266.74 462.625 1241.3 462.925 1214.31 463.147C1210.54 463.126 1208.29 462.583 1206.11 462.834C1195.33 464.076 1184.08 462.469 1184.24 448.52C1184.39 435.947 1193.55 429.064 1206.13 430.636C1206.97 430.742 1207.94 429.749 1209.16 429.099C1209.16 425.056 1209.16 420.901 1209.16 416.372C1207.74 415.867 1206.23 414.899 1204.71 414.867C1195.8 414.676 1186.33 416.705 1178.16 413.992C1172.22 412.016 1167.99 403.878 1163 398.488C1168.09 393.379 1172.73 384.704 1178.36 383.861C1192.58 381.731 1207.24 383.119 1221.72 383.108C1238.42 383.094 1255.14 383.388 1271.84 382.99C1285.21 382.672 1292.97 388.181 1292.59 405.06C1291.47 407.117 1290.35 407.893 1287.69 410.008C1282.63 412.487 1279.16 413.796 1275.6 414.736C1264.63 417.631 1263.07 422.787 1272.19 430.718Z" fill="white"/>
<path d="M1197.17 488.515C1202.36 493.038 1206.18 497.609 1210.01 502.18C1205.71 505.591 1201.74 511.02 1197.04 511.934C1190.18 513.267 1182.79 511.355 1174.38 510.355C1166.27 489.929 1167.68 488.598 1197.17 488.515Z" fill="white"/>
<path d="M1256.78 364.21C1250.49 364.214 1245.68 364.214 1236.22 364.214C1242.37 357.095 1245.41 350.435 1248.86 350.177C1258.86 349.428 1269.02 351.249 1279.11 352.062C1278.19 356.064 1277.93 363.075 1276.24 363.518C1270.52 365.008 1264.29 364.159 1256.78 364.21Z" fill="white"/>
<path d="M1364.95 433.724C1354.08 433.753 1344.54 434.619 1335.29 433.236C1331.42 432.657 1328.15 427.305 1324.6 424.122C1328.07 420.152 1331.15 413.43 1335.1 412.754C1344.84 411.088 1355.06 411.323 1364.89 412.62C1368.87 413.145 1372.31 418.427 1376 421.544C1372.8 425.58 1369.6 429.617 1364.95 433.724Z" fill="white"/>
<path d="M173.186 398.718C179.6 399.643 186.017 401.346 192.426 401.314C202.568 401.263 212.682 402.019 213.004 415.837C213.328 429.758 203.508 431.025 193.162 430.91C167.736 430.625 142.304 430.925 115.315 431.147C111.538 431.126 109.286 430.583 107.111 430.834C96.3317 432.076 85.0787 430.469 85.2406 416.52C85.3865 403.947 94.5483 397.064 107.127 398.636C107.974 398.742 108.937 397.749 110.164 397.099C110.164 393.056 110.164 388.901 110.164 384.372C108.737 383.867 107.23 382.899 105.707 382.867C96.7995 382.676 87.3288 384.705 79.1642 381.992C73.2175 380.016 68.9926 371.878 64 366.488C69.0913 361.379 73.7333 352.704 79.3622 351.861C93.5768 349.731 108.235 351.119 122.716 351.108C139.425 351.094 156.14 351.388 172.84 350.99C186.208 350.672 193.973 356.181 193.595 373.06C192.474 375.117 191.353 375.893 188.689 378.008C183.632 380.487 180.155 381.796 176.596 382.736C165.629 385.631 164.065 390.787 173.186 398.718Z" fill="white"/>
<path d="M98.1659 456.515C103.36 461.038 107.183 465.609 111.005 470.18C106.71 473.591 102.744 479.02 98.0407 479.934C91.1806 481.267 83.79 479.355 75.3814 478.355C67.2664 457.929 68.6801 456.598 98.1659 456.515Z" fill="white"/>
<path d="M157.776 332.21C151.487 332.214 146.68 332.214 137.221 332.214C143.371 325.095 146.414 318.435 149.86 318.177C159.858 317.428 170.018 319.249 180.115 320.062C179.195 324.064 178.935 331.075 177.235 331.518C171.519 333.008 165.291 332.159 157.776 332.21Z" fill="white"/>
<path d="M265.952 401.724C255.081 401.753 245.545 402.619 236.292 401.236C232.419 400.657 229.146 395.305 225.599 392.122C229.074 388.152 232.153 381.43 236.103 380.754C245.835 379.088 256.065 379.323 265.891 380.62C269.866 381.145 273.313 386.427 277 389.544C273.801 393.58 270.602 397.617 265.952 401.724Z" fill="white"/>
<path d="M340.186 188.718C346.6 189.643 353.017 191.346 359.426 191.314C369.568 191.263 379.682 192.019 380.004 205.837C380.328 219.758 370.508 221.025 360.162 220.91C334.736 220.625 309.304 220.925 282.315 221.147C278.538 221.126 276.286 220.583 274.111 220.834C263.332 222.076 252.079 220.469 252.241 206.52C252.386 193.947 261.548 187.064 274.127 188.636C274.974 188.742 275.937 187.749 277.164 187.099C277.164 183.056 277.164 178.901 277.164 174.372C275.737 173.867 274.23 172.899 272.707 172.867C263.8 172.676 254.329 174.705 246.164 171.992C240.217 170.016 235.993 161.878 231 156.488C236.091 151.379 240.733 142.704 246.362 141.861C260.577 139.731 275.235 141.119 289.716 141.108C306.425 141.094 323.14 141.388 339.84 140.99C353.208 140.672 360.973 146.181 360.595 163.06C359.474 165.117 358.353 165.893 355.689 168.008C350.632 170.487 347.155 171.796 343.596 172.736C332.629 175.631 331.065 180.787 340.186 188.718Z" fill="white"/>
<path d="M265.166 246.515C270.36 251.038 274.183 255.609 278.005 260.18C273.71 263.591 269.744 269.02 265.041 269.934C258.181 271.267 250.79 269.355 242.381 268.355C234.266 247.929 235.68 246.598 265.166 246.515Z" fill="white"/>
<path d="M324.776 122.21C318.487 122.214 313.68 122.214 304.221 122.214C310.371 115.095 313.414 108.435 316.86 108.177C326.858 107.428 337.018 109.249 347.115 110.062C346.195 114.064 345.935 121.075 344.235 121.518C338.519 123.008 332.291 122.159 324.776 122.21Z" fill="white"/>
<path d="M432.952 191.724C422.081 191.753 412.545 192.619 403.292 191.236C399.419 190.657 396.146 185.305 392.599 182.122C396.074 178.152 399.153 171.43 403.103 170.754C412.835 169.088 423.065 169.323 432.891 170.62C436.866 171.145 440.313 176.427 444 179.544C440.801 183.58 437.602 187.617 432.952 191.724Z" fill="white"/>
<path d="M1124.19 248.718C1130.6 249.643 1137.02 251.346 1143.43 251.314C1153.57 251.263 1163.68 252.019 1164 265.837C1164.33 279.758 1154.51 281.025 1144.16 280.91C1118.74 280.625 1093.3 280.925 1066.31 281.147C1062.54 281.126 1060.29 280.583 1058.11 280.834C1047.33 282.076 1036.08 280.469 1036.24 266.52C1036.39 253.947 1045.55 247.064 1058.13 248.636C1058.97 248.742 1059.94 247.749 1061.16 247.099C1061.16 243.056 1061.16 238.901 1061.16 234.372C1059.74 233.867 1058.23 232.899 1056.71 232.867C1047.8 232.676 1038.33 234.705 1030.16 231.992C1024.22 230.016 1019.99 221.878 1015 216.488C1020.09 211.379 1024.73 202.704 1030.36 201.861C1044.58 199.731 1059.24 201.119 1073.72 201.108C1090.42 201.094 1107.14 201.388 1123.84 200.99C1137.21 200.672 1144.97 206.181 1144.59 223.06C1143.47 225.117 1142.35 225.893 1139.69 228.008C1134.63 230.487 1131.16 231.796 1127.6 232.736C1116.63 235.631 1115.07 240.787 1124.19 248.718Z" fill="white"/>
<path d="M1049.17 306.515C1054.36 311.038 1058.18 315.609 1062.01 320.18C1057.71 323.591 1053.74 329.02 1049.04 329.934C1042.18 331.267 1034.79 329.355 1026.38 328.355C1018.27 307.929 1019.68 306.598 1049.17 306.515Z" fill="white"/>
<path d="M1108.78 182.21C1102.49 182.214 1097.68 182.214 1088.22 182.214C1094.37 175.095 1097.41 168.435 1100.86 168.177C1110.86 167.428 1121.02 169.249 1131.11 170.062C1130.19 174.064 1129.93 181.075 1128.23 181.518C1122.52 183.008 1116.29 182.159 1108.78 182.21Z" fill="white"/>
<path d="M1216.95 251.724C1206.08 251.753 1196.54 252.619 1187.29 251.236C1183.42 250.657 1180.15 245.305 1176.6 242.122C1180.07 238.152 1183.15 231.43 1187.1 230.754C1196.84 229.088 1207.06 229.323 1216.89 230.62C1220.87 231.145 1224.31 236.427 1228 239.544C1224.8 243.58 1221.6 247.617 1216.95 251.724Z" fill="white"/>
</g>
<defs>
<clipPath id="clip0_46_42">
<rect width="1440" height="1024" fill="white"/>
</clipPath>
</defs>
</svg>
