<svg width="1440" height="1022" viewBox="0 0 1440 1022" fill="none" xmlns="http://www.w3.org/2000/svg">
<g clip-path="url(#clip0_65_2)">
<path d="M0 766L40 792.7C80 819 160 873 240 888.7C320 905 400 883 480 851.3C560 819 640 777 720 760.7C800 745 880 755 960 798C1040 841 1120 915 1200 915.3C1280 915 1360 841 1400 803.3L1440 766V1022H1400C1360 1022 1280 1022 1200 1022C1120 1022 1040 1022 960 1022C880 1022 800 1022 720 1022C640 1022 560 1022 480 1022C400 1022 320 1022 240 1022C160 1022 80 1022 40 1022H0V766Z" fill="#066195"/>
</g>
<path d="M1272.19 404.718C1278.6 405.643 1285.02 407.346 1291.43 407.314C1301.57 407.263 1311.68 408.019 1312 421.837C1312.33 435.758 1302.51 437.026 1292.16 436.91C1266.74 436.625 1241.3 436.925 1214.31 437.147C1210.54 437.126 1208.29 436.583 1206.11 436.834C1195.33 438.076 1184.08 436.469 1184.24 422.52C1184.39 409.947 1193.55 403.064 1206.13 404.636C1206.97 404.742 1207.94 403.749 1209.16 403.099C1209.16 399.056 1209.16 394.901 1209.16 390.372C1207.74 389.867 1206.23 388.899 1204.71 388.867C1195.8 388.677 1186.33 390.706 1178.16 387.992C1172.22 386.016 1167.99 377.879 1163 372.488C1168.09 367.379 1172.73 358.704 1178.36 357.861C1192.58 355.731 1207.24 357.119 1221.72 357.108C1238.42 357.094 1255.14 357.388 1271.84 356.991C1285.21 356.672 1292.97 362.181 1292.59 379.06C1291.47 381.117 1290.35 381.893 1287.69 384.008C1282.63 386.487 1279.16 387.797 1275.6 388.736C1264.63 391.631 1263.07 396.788 1272.19 404.718Z" fill="white"/>
<path d="M1197.17 462.515C1202.36 467.038 1206.18 471.609 1210.01 476.18C1205.71 479.591 1201.74 485.02 1197.04 485.934C1190.18 487.268 1182.79 485.355 1174.38 484.355C1166.27 463.929 1167.68 462.598 1197.17 462.515Z" fill="white"/>
<path d="M1256.78 338.21C1250.49 338.214 1245.68 338.214 1236.22 338.214C1242.37 331.095 1245.41 324.435 1248.86 324.177C1258.86 323.428 1269.02 325.249 1279.11 326.062C1278.19 330.064 1277.93 337.075 1276.24 337.518C1270.52 339.008 1264.29 338.159 1256.78 338.21Z" fill="white"/>
<path d="M1364.95 407.724C1354.08 407.753 1344.54 408.619 1335.29 407.236C1331.42 406.657 1328.15 401.305 1324.6 398.122C1328.07 394.152 1331.15 387.43 1335.1 386.754C1344.84 385.088 1355.06 385.323 1364.89 386.62C1368.87 387.145 1372.31 392.427 1376 395.544C1372.8 399.58 1369.6 403.617 1364.95 407.724Z" fill="white"/>
<path d="M173.186 372.718C179.6 373.643 186.017 375.346 192.426 375.314C202.568 375.263 212.682 376.019 213.004 389.837C213.328 403.758 203.508 405.026 193.162 404.91C167.736 404.625 142.304 404.925 115.315 405.147C111.538 405.126 109.286 404.583 107.111 404.834C96.3317 406.076 85.0787 404.469 85.2406 390.52C85.3865 377.947 94.5483 371.064 107.127 372.636C107.974 372.742 108.937 371.749 110.164 371.099C110.164 367.056 110.164 362.901 110.164 358.372C108.737 357.867 107.23 356.899 105.707 356.867C96.7995 356.677 87.3288 358.706 79.1642 355.992C73.2175 354.016 68.9926 345.879 64 340.488C69.0913 335.379 73.7333 326.704 79.3622 325.861C93.5768 323.731 108.235 325.119 122.716 325.108C139.425 325.094 156.14 325.388 172.84 324.991C186.208 324.672 193.973 330.181 193.595 347.06C192.474 349.117 191.353 349.893 188.689 352.008C183.632 354.487 180.155 355.797 176.596 356.736C165.629 359.631 164.065 364.788 173.186 372.718Z" fill="white"/>
<path d="M98.1659 430.515C103.36 435.038 107.183 439.609 111.005 444.18C106.71 447.591 102.744 453.02 98.0407 453.934C91.1806 455.268 83.79 453.355 75.3814 452.355C67.2664 431.929 68.6801 430.598 98.1659 430.515Z" fill="white"/>
<path d="M157.776 306.21C151.487 306.214 146.68 306.214 137.221 306.214C143.371 299.095 146.414 292.435 149.86 292.177C159.858 291.428 170.018 293.249 180.115 294.062C179.195 298.064 178.935 305.075 177.235 305.518C171.519 307.008 165.291 306.159 157.776 306.21Z" fill="white"/>
<path d="M265.952 375.724C255.081 375.753 245.545 376.619 236.292 375.236C232.419 374.657 229.146 369.305 225.599 366.122C229.074 362.152 232.153 355.43 236.103 354.754C245.835 353.088 256.065 353.323 265.891 354.62C269.866 355.145 273.313 360.427 277 363.544C273.801 367.58 270.602 371.617 265.952 375.724Z" fill="white"/>
<path d="M340.186 162.718C346.6 163.643 353.017 165.346 359.426 165.314C369.568 165.263 379.682 166.019 380.004 179.837C380.328 193.758 370.508 195.026 360.162 194.91C334.736 194.625 309.304 194.925 282.315 195.147C278.538 195.126 276.286 194.583 274.111 194.834C263.332 196.076 252.079 194.469 252.241 180.52C252.386 167.947 261.548 161.064 274.127 162.636C274.974 162.742 275.937 161.749 277.164 161.099C277.164 157.056 277.164 152.901 277.164 148.372C275.737 147.867 274.23 146.899 272.707 146.867C263.8 146.677 254.329 148.706 246.164 145.992C240.217 144.016 235.993 135.879 231 130.488C236.091 125.379 240.733 116.704 246.362 115.861C260.577 113.731 275.235 115.119 289.716 115.108C306.425 115.094 323.14 115.388 339.84 114.991C353.208 114.672 360.973 120.181 360.595 137.06C359.474 139.117 358.353 139.893 355.689 142.008C350.632 144.487 347.155 145.797 343.596 146.736C332.629 149.631 331.065 154.788 340.186 162.718Z" fill="white"/>
<path d="M265.166 220.515C270.36 225.038 274.183 229.609 278.005 234.18C273.71 237.591 269.744 243.02 265.041 243.934C258.181 245.268 250.79 243.355 242.381 242.355C234.266 221.929 235.68 220.598 265.166 220.515Z" fill="white"/>
<path d="M324.776 96.2096C318.487 96.214 313.68 96.214 304.221 96.214C310.371 89.0951 313.414 82.4347 316.86 82.1767C326.858 81.4283 337.018 83.249 347.115 84.0616C346.195 88.0635 345.935 95.075 344.235 95.5182C338.519 97.0083 332.291 96.1592 324.776 96.2096Z" fill="white"/>
<path d="M432.952 165.724C422.081 165.753 412.545 166.619 403.292 165.236C399.419 164.657 396.146 159.305 392.599 156.122C396.074 152.152 399.153 145.43 403.103 144.754C412.835 143.088 423.065 143.323 432.891 144.62C436.866 145.145 440.313 150.427 444 153.544C440.801 157.58 437.602 161.617 432.952 165.724Z" fill="white"/>
<path d="M1124.19 222.718C1130.6 223.643 1137.02 225.346 1143.43 225.314C1153.57 225.263 1163.68 226.019 1164 239.837C1164.33 253.758 1154.51 255.026 1144.16 254.91C1118.74 254.625 1093.3 254.925 1066.31 255.147C1062.54 255.126 1060.29 254.583 1058.11 254.834C1047.33 256.076 1036.08 254.469 1036.24 240.52C1036.39 227.947 1045.55 221.064 1058.13 222.636C1058.97 222.742 1059.94 221.749 1061.16 221.099C1061.16 217.056 1061.16 212.901 1061.16 208.372C1059.74 207.867 1058.23 206.899 1056.71 206.867C1047.8 206.677 1038.33 208.706 1030.16 205.992C1024.22 204.016 1019.99 195.879 1015 190.488C1020.09 185.379 1024.73 176.704 1030.36 175.861C1044.58 173.731 1059.24 175.119 1073.72 175.108C1090.42 175.094 1107.14 175.388 1123.84 174.991C1137.21 174.672 1144.97 180.181 1144.59 197.06C1143.47 199.117 1142.35 199.893 1139.69 202.008C1134.63 204.487 1131.16 205.797 1127.6 206.736C1116.63 209.631 1115.07 214.788 1124.19 222.718Z" fill="white"/>
<path d="M1049.17 280.515C1054.36 285.038 1058.18 289.609 1062.01 294.18C1057.71 297.591 1053.74 303.02 1049.04 303.934C1042.18 305.268 1034.79 303.355 1026.38 302.355C1018.27 281.929 1019.68 280.598 1049.17 280.515Z" fill="white"/>
<path d="M1108.78 156.21C1102.49 156.214 1097.68 156.214 1088.22 156.214C1094.37 149.095 1097.41 142.435 1100.86 142.177C1110.86 141.428 1121.02 143.249 1131.11 144.062C1130.19 148.064 1129.93 155.075 1128.23 155.518C1122.52 157.008 1116.29 156.159 1108.78 156.21Z" fill="white"/>
<path d="M1216.95 225.724C1206.08 225.753 1196.54 226.619 1187.29 225.236C1183.42 224.657 1180.15 219.305 1176.6 216.122C1180.07 212.152 1183.15 205.43 1187.1 204.754C1196.84 203.088 1207.06 203.323 1216.89 204.62C1220.87 205.145 1224.31 210.427 1228 213.544C1224.8 217.58 1221.6 221.617 1216.95 225.724Z" fill="white"/>
<defs>
<clipPath id="clip0_65_2">
<rect width="1440" height="320" fill="white" transform="translate(0 702)"/>
</clipPath>
</defs>
</svg>
