<svg width="1440" height="1024" viewBox="0 0 1440 1024" fill="none" xmlns="http://www.w3.org/2000/svg">
<g clip-path="url(#clip0_9_189)">
<path d="M449.008 554.725C443.416 559.352 438.403 563.209 437.825 563.209C437.247 563.209 437.247 559.738 437.632 555.496C438.018 551.254 437.825 548.555 437.054 549.326C436.475 550.098 425.678 568.029 413.146 589.238C387.888 632.041 389.43 629.727 388.08 628.571C387.116 627.414 391.744 583.453 395.022 563.594C395.986 556.653 396.564 550.869 396.178 550.483C395.793 550.098 390.973 551.062 385.574 552.604L375.934 555.496L358.774 588.852L341.614 622.015L302.666 641.489C273.938 655.949 255.043 664.047 230.363 672.145C202.213 681.4 187.946 687.955 135.502 714.563C25.0226 770.67 13.4541 771.441 -30.1206 724.589C-51.9079 700.874 -60.3914 695.861 -89.3127 688.534C-98.1819 686.413 -110.714 682.75 -117.077 680.629C-123.44 678.315 -134.044 676.58 -140.6 676.387C-150.626 676.387 -154.867 677.351 -166.629 683.328C-183.21 691.426 -204.805 709.357 -222.929 730.18C-234.69 743.484 -235.654 745.219 -232.376 746.955C-222.543 752.161 -209.625 763.729 -205.383 771.249C-198.635 782.624 -198.828 794.964 -206.733 828.127L-213.096 854.156L-209.625 863.411C-207.118 870.159 -200.563 878.257 -186.102 893.103C-174.341 905.25 -166.243 915.084 -166.243 917.397C-166.243 922.989 -175.112 934.364 -191.694 949.982C-207.89 965.406 -244.716 996.256 -266.118 1012.45L-280 1023.06L17.8887 1023.63C181.776 1023.83 449.779 1023.83 613.473 1023.63L910.976 1023.06L867.787 969.07C818.043 906.793 821.899 917.204 833.467 876.522C837.131 863.797 842.722 842.395 846.193 828.898L852.17 804.412L831.347 760.066C811.68 718.805 809.945 715.527 803.582 712.828C799.919 711.285 789.122 706.465 779.481 702.416C756.151 692.197 742.655 689.305 733.4 692.39C729.544 693.547 719.903 700.681 711.42 708.779L696.381 722.854L663.025 666.168C644.708 634.933 628.898 609.868 627.934 610.447C627.163 611.025 614.823 601.77 600.941 590.009C571.827 565.715 573.562 565.522 571.248 591.551C570.477 600.421 569.32 607.554 568.549 607.554C567.971 607.362 556.595 594.058 543.291 577.669C530.18 561.28 518.997 547.784 518.804 547.784C518.419 547.784 508.971 553.761 497.981 561.28C486.991 568.607 477.158 574.777 476.194 574.777C475.423 574.777 471.566 568.607 468.096 561.088C464.432 553.568 460.962 547.205 460.384 546.82C459.805 546.434 454.792 549.905 449.008 554.725ZM424.328 633.969C423.943 637.054 421.051 657.492 418.159 679.665C415.074 701.645 411.796 720.347 410.832 721.118C409.868 721.697 399.263 730.373 387.309 740.399L365.908 758.716L366.293 796.314L366.872 833.718L381.911 838.346C390.009 840.852 396.757 843.937 396.757 845.094C396.757 847.408 362.63 982.374 360.894 987.387C360.123 989.508 358.581 988.543 354.725 983.723C313.464 930.315 289.941 904.093 272.588 892.332C259.863 883.656 234.798 871.702 205.298 859.94C194.501 855.699 184.861 851.457 184.089 850.686C183.318 849.914 189.874 839.696 198.55 828.32L214.553 807.304L242.51 790.529L270.467 773.755L292.833 744.641C314.235 716.877 316.549 714.37 345.855 691.619C362.63 678.508 386.924 659.034 399.649 648.43C412.374 637.825 423.364 628.956 423.943 628.956C424.521 628.763 424.714 631.077 424.328 633.969ZM297.461 688.534C296.882 689.498 282.229 702.802 264.876 718.226L233.255 746.376L194.115 746.762L154.975 747.34L140.322 767.971C130.296 782.431 124.897 788.409 122.969 787.637C121.427 787.059 109.473 783.396 96.5544 779.539C83.4435 775.683 72.839 772.02 72.839 771.441C73.0318 770.863 91.3486 758.138 113.907 742.906L154.783 715.527H185.632H216.481L256.971 701.066C303.052 684.871 299.003 686.027 297.461 688.534Z" fill="#066195"/>
<path d="M1032.06 594.829C1017.41 599.457 995.234 612.76 979.231 626.45L972.483 632.041L975.953 673.302L979.231 714.563L990.221 724.203C996.198 729.409 1004.1 736.543 1007.57 739.821L1014.13 745.605L994.848 760.451C977.496 773.755 973.639 777.997 956.094 802.676C945.297 817.715 937.006 830.248 937.391 830.634C937.777 831.019 953.009 823.885 971.326 814.823C989.642 805.761 1004.68 798.435 1005.07 798.82C1005.26 799.206 998.126 825.235 989.064 856.663L972.483 914.12L952.623 922.025C941.633 926.459 932.764 930.508 932.764 931.28C932.764 931.858 941.633 953.067 952.43 978.132L972.29 1024.02H1346.14H1720L1705.73 1012.64C1669.48 983.723 1616.85 950.368 1586.58 937.064C1577.51 933.015 1549.94 923.76 1525.46 916.24C1423.27 885.198 1393.38 870.931 1381.62 847.794C1372.17 829.284 1341.52 802.676 1260.54 742.135C1235.67 723.625 1202.7 697.596 1187.27 684.485C1112.46 620.858 1097.23 608.904 1076.6 597.914C1067.34 593.094 1063.3 592.13 1052.5 592.323C1045.56 592.323 1036.3 593.479 1032.06 594.829Z" fill="#066195"/>
<path d="M909.182 726.14C907.931 729.867 902.231 733.462 890.97 737.455C885.688 739.319 879.988 741.715 878.32 742.78C875.539 744.644 874.566 744.378 868.171 740.784C864.279 738.52 860.525 736.79 859.83 736.79C859.274 736.79 857.467 738.787 855.938 741.05C851.35 748.105 845.372 752.765 839.95 753.697C835.224 754.362 834.39 753.963 826.744 746.242C819.932 739.452 817.846 738.121 813.954 738.121C807.142 738.121 792.128 745.842 770.858 760.22C736.799 783.25 725.677 788.176 709.69 787.111C698.986 786.312 693.981 784.049 683.972 775.396C674.379 767.142 669.097 764.48 661.59 764.346C656.585 764.346 654.5 765.145 648.939 769.538C645.324 772.334 621.969 790.572 597.085 810.008C503.108 883.759 478.224 900.799 460.847 903.86C453.618 905.058 430.541 901.331 411.495 895.873C402.32 893.21 375.489 883.626 351.717 874.573C328.084 865.521 304.034 856.868 298.473 855.27L288.325 852.341L281.652 857.666C256.35 878.167 209.918 898.935 160.566 911.848C136.099 918.238 130.399 920.501 118.444 928.089C97.035 941.668 55.0514 976.28 15.292 1012.89L0 1027L213.394 1026.33C330.725 1026.07 655.473 1025.67 934.9 1025.67C1439.82 1025.67 1443.01 1025.54 1439.54 1023.01C1415.21 1004.64 1135.78 810.008 1133.97 810.008C1133.28 810.008 1132.03 811.605 1131.06 813.469C1128.83 818.395 1132.45 824.918 1141.2 831.574L1148.29 837.032L1139.95 836.367C1129.39 835.701 1117.99 830.642 1099.64 818.661C1076.28 803.485 1066.83 800.556 1042.36 801.754L1028.18 802.287L1011.78 794.965C996.902 788.309 974.103 780.721 968.682 780.721C965.762 780.721 967.013 770.87 970.35 767.408C972.435 765.145 972.296 764.746 965.901 760.619C962.287 758.223 955.336 753.43 950.609 749.836C945.744 746.375 941.573 743.446 941.017 743.446C940.6 743.446 934.483 739.186 927.532 733.861C914.047 723.477 910.572 722.013 909.182 726.14Z" fill="#D4EBFF"/>
<path d="M1272.19 399.718C1278.6 400.643 1285.02 402.346 1291.43 402.314C1301.57 402.263 1311.68 403.019 1312 416.837C1312.33 430.758 1302.51 432.025 1292.16 431.91C1266.74 431.625 1241.3 431.925 1214.31 432.147C1210.54 432.126 1208.29 431.583 1206.11 431.834C1195.33 433.076 1184.08 431.469 1184.24 417.52C1184.39 404.947 1193.55 398.064 1206.13 399.636C1206.97 399.742 1207.94 398.749 1209.16 398.099C1209.16 394.056 1209.16 389.901 1209.16 385.372C1207.74 384.867 1206.23 383.899 1204.71 383.867C1195.8 383.676 1186.33 385.705 1178.16 382.992C1172.22 381.016 1167.99 372.878 1163 367.488C1168.09 362.379 1172.73 353.704 1178.36 352.861C1192.58 350.731 1207.24 352.119 1221.72 352.108C1238.42 352.094 1255.14 352.388 1271.84 351.99C1285.21 351.672 1292.97 357.181 1292.59 374.06C1291.47 376.117 1290.35 376.893 1287.69 379.008C1282.63 381.487 1279.16 382.796 1275.6 383.736C1264.63 386.631 1263.07 391.787 1272.19 399.718Z" fill="white"/>
<path d="M1197.17 457.515C1202.36 462.038 1206.18 466.609 1210.01 471.18C1205.71 474.591 1201.74 480.02 1197.04 480.934C1190.18 482.267 1182.79 480.355 1174.38 479.355C1166.27 458.929 1167.68 457.598 1197.17 457.515Z" fill="white"/>
<path d="M1256.78 333.21C1250.49 333.214 1245.68 333.214 1236.22 333.214C1242.37 326.095 1245.41 319.435 1248.86 319.177C1258.86 318.428 1269.02 320.249 1279.11 321.062C1278.19 325.064 1277.93 332.075 1276.24 332.518C1270.52 334.008 1264.29 333.159 1256.78 333.21Z" fill="white"/>
<path d="M1364.95 402.724C1354.08 402.753 1344.54 403.619 1335.29 402.236C1331.42 401.657 1328.15 396.305 1324.6 393.122C1328.07 389.152 1331.15 382.43 1335.1 381.754C1344.84 380.088 1355.06 380.323 1364.89 381.62C1368.87 382.145 1372.31 387.427 1376 390.544C1372.8 394.581 1369.6 398.617 1364.95 402.724Z" fill="white"/>
<path d="M173.186 367.718C179.6 368.643 186.017 370.346 192.426 370.314C202.568 370.263 212.682 371.019 213.004 384.837C213.328 398.758 203.508 400.025 193.162 399.91C167.736 399.625 142.304 399.925 115.315 400.147C111.538 400.126 109.286 399.583 107.111 399.834C96.3317 401.076 85.0787 399.469 85.2406 385.52C85.3865 372.947 94.5483 366.064 107.127 367.636C107.974 367.742 108.937 366.749 110.164 366.099C110.164 362.056 110.164 357.901 110.164 353.372C108.737 352.867 107.23 351.899 105.707 351.867C96.7995 351.676 87.3288 353.705 79.1642 350.992C73.2175 349.016 68.9926 340.878 64 335.488C69.0913 330.379 73.7333 321.704 79.3622 320.861C93.5768 318.731 108.235 320.119 122.716 320.108C139.425 320.094 156.14 320.388 172.84 319.99C186.208 319.672 193.973 325.181 193.595 342.06C192.474 344.117 191.353 344.893 188.689 347.008C183.632 349.487 180.155 350.796 176.596 351.736C165.629 354.631 164.065 359.787 173.186 367.718Z" fill="white"/>
<path d="M98.1659 425.515C103.36 430.038 107.183 434.609 111.005 439.18C106.71 442.591 102.744 448.02 98.0407 448.934C91.1806 450.267 83.79 448.355 75.3814 447.355C67.2664 426.929 68.6801 425.598 98.1659 425.515Z" fill="white"/>
<path d="M157.776 301.21C151.487 301.214 146.68 301.214 137.221 301.214C143.371 294.095 146.414 287.435 149.86 287.177C159.858 286.428 170.018 288.249 180.115 289.062C179.195 293.064 178.935 300.075 177.235 300.518C171.519 302.008 165.291 301.159 157.776 301.21Z" fill="white"/>
<path d="M265.952 370.724C255.081 370.753 245.545 371.619 236.292 370.236C232.419 369.657 229.146 364.305 225.599 361.122C229.074 357.152 232.153 350.43 236.103 349.754C245.835 348.088 256.065 348.323 265.891 349.62C269.866 350.145 273.313 355.427 277 358.544C273.801 362.581 270.602 366.617 265.952 370.724Z" fill="white"/>
<path d="M340.186 157.718C346.6 158.643 353.017 160.346 359.426 160.314C369.568 160.263 379.682 161.019 380.004 174.837C380.328 188.758 370.508 190.025 360.162 189.91C334.736 189.625 309.304 189.925 282.315 190.147C278.538 190.126 276.286 189.583 274.111 189.834C263.332 191.076 252.079 189.469 252.241 175.52C252.386 162.947 261.548 156.064 274.127 157.636C274.974 157.742 275.937 156.749 277.164 156.099C277.164 152.056 277.164 147.901 277.164 143.372C275.737 142.867 274.23 141.899 272.707 141.867C263.8 141.676 254.329 143.705 246.164 140.992C240.217 139.016 235.993 130.878 231 125.488C236.091 120.379 240.733 111.704 246.362 110.861C260.577 108.731 275.235 110.119 289.716 110.108C306.425 110.094 323.14 110.388 339.84 109.99C353.208 109.672 360.973 115.181 360.595 132.06C359.474 134.117 358.353 134.893 355.689 137.008C350.632 139.487 347.155 140.796 343.596 141.736C332.629 144.631 331.065 149.787 340.186 157.718Z" fill="white"/>
<path d="M265.166 215.515C270.36 220.038 274.183 224.609 278.005 229.18C273.71 232.591 269.744 238.02 265.041 238.934C258.181 240.267 250.79 238.355 242.381 237.355C234.266 216.929 235.68 215.598 265.166 215.515Z" fill="white"/>
<path d="M324.776 91.2096C318.487 91.214 313.68 91.214 304.221 91.214C310.371 84.0951 313.414 77.4347 316.86 77.1767C326.858 76.4283 337.018 78.249 347.115 79.0616C346.195 83.0635 345.935 90.075 344.235 90.5182C338.519 92.0083 332.291 91.1592 324.776 91.2096Z" fill="white"/>
<path d="M432.952 160.724C422.081 160.753 412.545 161.619 403.292 160.236C399.419 159.657 396.146 154.305 392.599 151.122C396.074 147.152 399.153 140.43 403.103 139.754C412.835 138.088 423.065 138.323 432.891 139.62C436.866 140.145 440.313 145.427 444 148.544C440.801 152.581 437.602 156.617 432.952 160.724Z" fill="white"/>
<path d="M1124.19 217.718C1130.6 218.643 1137.02 220.346 1143.43 220.314C1153.57 220.263 1163.68 221.019 1164 234.837C1164.33 248.758 1154.51 250.025 1144.16 249.91C1118.74 249.625 1093.3 249.925 1066.31 250.147C1062.54 250.126 1060.29 249.583 1058.11 249.834C1047.33 251.076 1036.08 249.469 1036.24 235.52C1036.39 222.947 1045.55 216.064 1058.13 217.636C1058.97 217.742 1059.94 216.749 1061.16 216.099C1061.16 212.056 1061.16 207.901 1061.16 203.372C1059.74 202.867 1058.23 201.899 1056.71 201.867C1047.8 201.676 1038.33 203.705 1030.16 200.992C1024.22 199.016 1019.99 190.878 1015 185.488C1020.09 180.379 1024.73 171.704 1030.36 170.861C1044.58 168.731 1059.24 170.119 1073.72 170.108C1090.42 170.094 1107.14 170.388 1123.84 169.99C1137.21 169.672 1144.97 175.181 1144.59 192.06C1143.47 194.117 1142.35 194.893 1139.69 197.008C1134.63 199.487 1131.16 200.796 1127.6 201.736C1116.63 204.631 1115.07 209.787 1124.19 217.718Z" fill="white"/>
<path d="M1049.17 275.515C1054.36 280.038 1058.18 284.609 1062.01 289.18C1057.71 292.591 1053.74 298.02 1049.04 298.934C1042.18 300.267 1034.79 298.355 1026.38 297.355C1018.27 276.929 1019.68 275.598 1049.17 275.515Z" fill="white"/>
<path d="M1108.78 151.21C1102.49 151.214 1097.68 151.214 1088.22 151.214C1094.37 144.095 1097.41 137.435 1100.86 137.177C1110.86 136.428 1121.02 138.249 1131.11 139.062C1130.19 143.064 1129.93 150.075 1128.23 150.518C1122.52 152.008 1116.29 151.159 1108.78 151.21Z" fill="white"/>
<path d="M1216.95 220.724C1206.08 220.753 1196.54 221.619 1187.29 220.236C1183.42 219.657 1180.15 214.305 1176.6 211.122C1180.07 207.152 1183.15 200.43 1187.1 199.754C1196.84 198.088 1207.06 198.323 1216.89 199.62C1220.87 200.145 1224.31 205.427 1228 208.544C1224.8 212.581 1221.6 216.617 1216.95 220.724Z" fill="white"/>
</g>
<defs>
<clipPath id="clip0_9_189">
<rect width="1440" height="1024" fill="white"/>
</clipPath>
</defs>
</svg>
